G04 Layer_Physical_Order=2*
G04 Layer_Color=11436288*
%FSLAX25Y25*%
%MOIN*%
G70*
G01*
G75*
%ADD10C,0.02400*%
%ADD11C,0.10000*%
%ADD12C,0.04000*%
%ADD13C,0.01000*%
%ADD14R,0.06400X0.06400*%
%ADD15C,0.06400*%
%ADD16O,0.06400X0.05906*%
%ADD17O,0.06400X0.08000*%
%ADD18R,0.06400X0.08000*%
%ADD19C,0.12000*%
%ADD20C,0.09000*%
%ADD21C,0.16000*%
%ADD22C,0.52000*%
%ADD23O,0.06500X0.08000*%
%ADD24C,0.07000*%
%ADD25O,0.05906X0.08661*%
%ADD26R,0.06693X0.08000*%
%ADD27C,0.09843*%
%ADD28C,0.06800*%
%ADD29R,0.06800X0.06800*%
%ADD30O,0.06000X0.06400*%
%ADD31R,0.12000X0.12000*%
%ADD32C,0.10000*%
%ADD33R,0.10000X0.10000*%
%ADD34C,0.05906*%
%ADD35R,0.06299X0.06299*%
%ADD36R,0.06400X0.06400*%
%ADD37O,0.08000X0.06500*%
%ADD38C,0.06000*%
%ADD39C,0.20000*%
G36*
X412277Y218835D02*
X411648Y218352D01*
X411223Y217799D01*
X410723Y217968D01*
Y233000D01*
X410631Y233705D01*
X410358Y234362D01*
X409926Y234926D01*
X404926Y239926D01*
X404362Y240358D01*
X403705Y240631D01*
X403000Y240723D01*
X340000D01*
X339357Y240639D01*
X339220Y240774D01*
X339062Y241075D01*
X339217Y241277D01*
X412277D01*
Y218835D01*
D02*
G37*
G36*
X543795Y371132D02*
X544142Y370785D01*
X544038Y369999D01*
X544200Y368772D01*
X544673Y367629D01*
X545427Y366647D01*
X546409Y365894D01*
X547552Y365420D01*
X548779Y365259D01*
X549565Y365362D01*
X558399Y356528D01*
Y347505D01*
X557772Y347170D01*
X556859Y346421D01*
X556109Y345507D01*
X555552Y344465D01*
X555209Y343334D01*
X555093Y342157D01*
X555209Y340981D01*
X555552Y339850D01*
X556109Y338808D01*
X556859Y337894D01*
X557772Y337144D01*
X558815Y336587D01*
X559946Y336244D01*
X561122Y336128D01*
X562298Y336244D01*
X563429Y336587D01*
X564472Y337144D01*
X565385Y337894D01*
X566135Y338808D01*
X566692Y339850D01*
X567035Y340981D01*
X567151Y342157D01*
X567035Y343334D01*
X566692Y344465D01*
X566135Y345507D01*
X565385Y346421D01*
X564472Y347170D01*
X563845Y347505D01*
Y354933D01*
X640216D01*
X659074Y336074D01*
X659638Y335642D01*
X659910Y335529D01*
X660295Y335369D01*
X661000Y335277D01*
X670872D01*
X687277Y318872D01*
Y254128D01*
X648074Y214926D01*
X647642Y214362D01*
X647369Y213705D01*
X647277Y213000D01*
Y151128D01*
X623872Y127723D01*
X562529D01*
Y142227D01*
X562499Y142381D01*
X563884Y142801D01*
X564691Y143232D01*
X597500D01*
Y142500D01*
X612500D01*
Y157500D01*
X597500D01*
Y156295D01*
X564691D01*
X563884Y156726D01*
X562499Y157147D01*
X562529Y157300D01*
Y252464D01*
X562499Y252617D01*
X563884Y253037D01*
X565187Y253734D01*
X566329Y254671D01*
X567266Y255813D01*
X567963Y257116D01*
X568392Y258530D01*
X568536Y260000D01*
X568392Y261470D01*
X567963Y262884D01*
X567531Y263691D01*
Y290010D01*
X568085Y291045D01*
X568513Y292459D01*
X568658Y293929D01*
X568513Y295399D01*
X568085Y296813D01*
X567388Y298116D01*
X566451Y299258D01*
X565309Y300195D01*
X564006Y300892D01*
X562592Y301321D01*
X561122Y301466D01*
X559652Y301321D01*
X558238Y300892D01*
X556935Y300195D01*
X555793Y299258D01*
X554856Y298116D01*
X554159Y296813D01*
X553730Y295399D01*
X553586Y293929D01*
X553730Y292459D01*
X554159Y291045D01*
X554468Y290467D01*
Y269348D01*
X554007Y269156D01*
X527081Y296081D01*
X526585Y296413D01*
X526000Y296529D01*
X522178D01*
X521971Y297029D01*
X529411Y304470D01*
X566538D01*
X581470Y289538D01*
Y283120D01*
X580895Y282370D01*
X580421Y281227D01*
X580259Y280000D01*
X580421Y278773D01*
X580895Y277630D01*
X581648Y276648D01*
X582630Y275894D01*
X583773Y275421D01*
X585000Y275259D01*
X586227Y275421D01*
X587370Y275894D01*
X588352Y276648D01*
X589106Y277630D01*
X589579Y278773D01*
X589741Y280000D01*
X589579Y281227D01*
X589106Y282370D01*
X588530Y283120D01*
Y291000D01*
X588410Y291914D01*
X588057Y292765D01*
X587496Y293496D01*
X570496Y310496D01*
X569765Y311057D01*
X568914Y311410D01*
X568000Y311530D01*
X527949D01*
X527949Y311530D01*
X527035Y311410D01*
X526184Y311057D01*
X525453Y310496D01*
X516061Y301104D01*
X515348Y301321D01*
X513878Y301466D01*
X512408Y301321D01*
X510994Y300892D01*
X509691Y300195D01*
X508549Y299258D01*
X507612Y298116D01*
X506925Y296831D01*
X506660Y296413D01*
X506404Y296464D01*
X506150Y296528D01*
X506112Y296522D01*
X506075Y296529D01*
X504529D01*
Y317367D01*
X526081Y338919D01*
X526413Y339415D01*
X526529Y340000D01*
X526529Y354366D01*
X543295Y371132D01*
X543795D01*
D02*
G37*
G36*
X455000Y340000D02*
Y310000D01*
X470000Y295000D01*
X506075D01*
X506411Y294630D01*
X506342Y293929D01*
X506487Y292459D01*
X506915Y291045D01*
X507612Y289742D01*
X508549Y288600D01*
X509691Y287663D01*
X510994Y286967D01*
X512408Y286538D01*
X513878Y286393D01*
X515348Y286538D01*
X516762Y286967D01*
X518065Y287663D01*
X519207Y288600D01*
X520144Y289742D01*
X520841Y291045D01*
X521270Y292459D01*
X521414Y293929D01*
X521345Y294630D01*
X521681Y295000D01*
X526000D01*
X554468Y266531D01*
Y263691D01*
X554037Y262884D01*
X553609Y261470D01*
X553464Y260000D01*
X553609Y258530D01*
X554037Y257116D01*
X554117Y256968D01*
X544872Y247723D01*
X523835D01*
X523352Y248352D01*
X522370Y249106D01*
X521227Y249579D01*
X520000Y249741D01*
X518773Y249579D01*
X517630Y249106D01*
X516648Y248352D01*
X515895Y247370D01*
X515421Y246227D01*
X515259Y245000D01*
X515421Y243773D01*
X515895Y242630D01*
X516648Y241648D01*
X517630Y240895D01*
X518773Y240421D01*
X520000Y240259D01*
X521227Y240421D01*
X522370Y240895D01*
X523352Y241648D01*
X523835Y242277D01*
X546000D01*
X546705Y242370D01*
X547362Y242642D01*
X547926Y243074D01*
X557968Y253117D01*
X558116Y253037D01*
X559530Y252608D01*
X561000Y252464D01*
Y157300D01*
X559530Y157155D01*
X558116Y156726D01*
X557968Y156647D01*
X542690Y171926D01*
X542126Y172358D01*
X541469Y172631D01*
X540764Y172723D01*
X523835D01*
X523352Y173352D01*
X522370Y174105D01*
X521227Y174579D01*
X520000Y174741D01*
X518773Y174579D01*
X517630Y174105D01*
X516648Y173352D01*
X515895Y172370D01*
X515421Y171227D01*
X515259Y170000D01*
X515421Y168773D01*
X515895Y167630D01*
X516648Y166648D01*
X517630Y165895D01*
X518773Y165421D01*
X520000Y165259D01*
X521227Y165421D01*
X522370Y165895D01*
X523352Y166648D01*
X523835Y167277D01*
X539636D01*
X554117Y152796D01*
X554037Y152648D01*
X553609Y151234D01*
X553464Y149764D01*
X553609Y148293D01*
X554037Y146880D01*
X554734Y145577D01*
X555671Y144435D01*
X556813Y143498D01*
X558116Y142801D01*
X559530Y142372D01*
X561000Y142227D01*
Y127723D01*
X492723D01*
Y155099D01*
X493176Y155446D01*
X493890Y156377D01*
X494338Y157460D01*
X494491Y158622D01*
Y161378D01*
X494338Y162540D01*
X493890Y163623D01*
X493176Y164554D01*
X492723Y164901D01*
Y186000D01*
X492641Y186623D01*
X492630Y186705D01*
X492358Y187362D01*
X491926Y187926D01*
X482926Y196926D01*
X482362Y197358D01*
X481705Y197631D01*
X481000Y197723D01*
X478835D01*
X478352Y198352D01*
X477370Y199105D01*
X476227Y199579D01*
X475000Y199741D01*
X473773Y199579D01*
X472630Y199105D01*
X471648Y198352D01*
X471165Y197723D01*
X471149D01*
X470444Y197631D01*
X469787Y197358D01*
X469223Y196926D01*
X465074Y192777D01*
X464642Y192213D01*
X464369Y191556D01*
X464277Y190851D01*
Y178128D01*
X460786Y174637D01*
X460000Y174741D01*
X458773Y174579D01*
X457630Y174105D01*
X456648Y173352D01*
X455895Y172370D01*
X455421Y171227D01*
X455259Y170000D01*
X455421Y168773D01*
X455895Y167630D01*
X456648Y166648D01*
X457630Y165895D01*
X458773Y165421D01*
X459692Y165300D01*
X459692Y165300D01*
X460000Y165259D01*
X460308Y165300D01*
X460308Y165300D01*
X461227Y165421D01*
X462370Y165895D01*
X463352Y166648D01*
X464106Y167630D01*
X464579Y168773D01*
X464741Y170000D01*
X464637Y170786D01*
X468926Y175074D01*
X469358Y175638D01*
X469471Y175910D01*
X469630Y176295D01*
X469723Y177000D01*
Y189723D01*
X471648Y191648D01*
X471648D01*
X472630Y190895D01*
X473773Y190421D01*
X475000Y190259D01*
X476227Y190421D01*
X477370Y190895D01*
X478352Y191648D01*
X478835Y192277D01*
X479872D01*
X487277Y184872D01*
Y164901D01*
X486824Y164554D01*
X486110Y163623D01*
X485662Y162540D01*
X485509Y161378D01*
Y158622D01*
X485662Y157460D01*
X486110Y156377D01*
X486824Y155446D01*
X487277Y155099D01*
Y127723D01*
X417723D01*
Y147962D01*
X417858Y148138D01*
X418130Y148795D01*
X418223Y149500D01*
X418130Y150205D01*
X417858Y150862D01*
X417426Y151426D01*
X388059Y180793D01*
X388102Y181456D01*
X388352Y181648D01*
X389106Y182630D01*
X389579Y183773D01*
X389741Y185000D01*
X389579Y186227D01*
X389106Y187370D01*
X388352Y188352D01*
X387370Y189105D01*
X386227Y189579D01*
X385000Y189741D01*
X383773Y189579D01*
X382630Y189105D01*
X381648Y188352D01*
X380894Y187370D01*
X380421Y186227D01*
X380259Y185000D01*
X380421Y183773D01*
X380684Y183139D01*
X380406Y182723D01*
X373835D01*
X373352Y183352D01*
X372370Y184105D01*
X371227Y184579D01*
X370000Y184741D01*
X368773Y184579D01*
X367630Y184105D01*
X366648Y183352D01*
X365895Y182370D01*
X365421Y181227D01*
X365259Y180000D01*
X365421Y178773D01*
X365895Y177630D01*
X366648Y176648D01*
X367630Y175895D01*
X368773Y175421D01*
X369692Y175300D01*
X369692Y175300D01*
X370000Y175259D01*
X370308Y175300D01*
X370308Y175300D01*
X371227Y175421D01*
X372370Y175895D01*
X373352Y176648D01*
X373835Y177277D01*
X383872D01*
X412277Y148872D01*
Y127723D01*
X386967D01*
X386760Y128223D01*
X397492Y138955D01*
X398426Y138672D01*
X399685Y138548D01*
X400944Y138672D01*
X402154Y139039D01*
X403270Y139635D01*
X404248Y140437D01*
X405050Y141415D01*
X405646Y142531D01*
X406013Y143741D01*
X406137Y145000D01*
X406013Y146259D01*
X405646Y147469D01*
X405050Y148585D01*
X404248Y149563D01*
X403270Y150365D01*
X402154Y150961D01*
X400944Y151328D01*
X399685Y151452D01*
X398426Y151328D01*
X397216Y150961D01*
X396100Y150365D01*
X395123Y149563D01*
X394320Y148585D01*
X393724Y147469D01*
X393357Y146259D01*
X393233Y145000D01*
X393357Y143741D01*
X393640Y142806D01*
X383557Y132723D01*
X295128D01*
X287723Y140128D01*
Y156000D01*
Y161165D01*
X288352Y161648D01*
X289106Y162630D01*
X289579Y163773D01*
X289741Y165000D01*
X289579Y166227D01*
X289106Y167370D01*
X288352Y168352D01*
X287723Y168835D01*
Y186165D01*
X288352Y186648D01*
X289106Y187630D01*
X289579Y188773D01*
X289741Y190000D01*
X289579Y191227D01*
X289106Y192370D01*
X288352Y193352D01*
X287370Y194105D01*
X286227Y194579D01*
X285000Y194741D01*
X283773Y194579D01*
X282630Y194105D01*
X281648Y193352D01*
X281376Y192998D01*
X280876D01*
X280549Y193423D01*
X279547Y194193D01*
X278379Y194676D01*
X277926Y194736D01*
Y190000D01*
Y185264D01*
X278379Y185324D01*
X279547Y185807D01*
X280549Y186577D01*
X280876Y187002D01*
X281376D01*
X281648Y186648D01*
X282277Y186165D01*
Y168835D01*
X281648Y168352D01*
X280894Y167370D01*
X280421Y166227D01*
X280300Y165308D01*
X280300Y165308D01*
X280259Y165000D01*
X280300Y164692D01*
X280300Y164692D01*
X280421Y163773D01*
X280894Y162630D01*
X281648Y161648D01*
X282277Y161165D01*
Y156000D01*
Y152615D01*
X279943D01*
Y155392D01*
X270250D01*
Y152042D01*
X269773Y151945D01*
X269289Y153113D01*
X268520Y154115D01*
X267517Y154885D01*
X266350Y155368D01*
X265896Y155428D01*
Y149892D01*
Y144356D01*
X266350Y144415D01*
X267517Y144899D01*
X268520Y145668D01*
X269289Y146671D01*
X269773Y147839D01*
X270250Y147741D01*
Y144392D01*
X279943D01*
Y147169D01*
X282277D01*
Y139000D01*
X282369Y138295D01*
X282642Y137638D01*
X283074Y137074D01*
X291925Y128223D01*
X291718Y127723D01*
X270128D01*
X257820Y140032D01*
Y145257D01*
X258449Y145740D01*
X259202Y146722D01*
X259676Y147865D01*
X259794Y148764D01*
X260298D01*
X260420Y147839D01*
X260904Y146671D01*
X261673Y145668D01*
X262676Y144899D01*
X263843Y144415D01*
X264296Y144356D01*
Y149892D01*
Y155428D01*
X263843Y155368D01*
X262676Y154885D01*
X261673Y154115D01*
X260904Y153113D01*
X260420Y151945D01*
X260298Y151020D01*
X259794D01*
X259676Y151919D01*
X259202Y153062D01*
X258449Y154044D01*
X257467Y154797D01*
X256323Y155271D01*
X255096Y155432D01*
X253870Y155271D01*
X252726Y154797D01*
X251744Y154044D01*
X250991Y153062D01*
X250851Y152723D01*
X247723D01*
Y161165D01*
X248352Y161648D01*
X249106Y162630D01*
X249579Y163773D01*
X249700Y164692D01*
X249700Y164692D01*
X249741Y165000D01*
X249700Y165308D01*
X249700Y165308D01*
X249579Y166227D01*
X249106Y167370D01*
X248352Y168352D01*
X247370Y169105D01*
X246227Y169579D01*
X245000Y169741D01*
X243773Y169579D01*
X242630Y169105D01*
X241648Y168352D01*
X240895Y167370D01*
X240421Y166227D01*
X240259Y165000D01*
X240421Y163773D01*
X240895Y162630D01*
X241648Y161648D01*
X242277Y161165D01*
Y152723D01*
X224700D01*
Y155500D01*
X215500D01*
X215000Y155876D01*
Y161000D01*
X239000Y185000D01*
X253222D01*
X253321Y184500D01*
X252579Y184193D01*
X251577Y183423D01*
X250807Y182421D01*
X250324Y181253D01*
X250264Y180800D01*
X259736D01*
X259677Y181253D01*
X259193Y182421D01*
X258423Y183423D01*
X257421Y184193D01*
X256253Y184676D01*
X255485Y184778D01*
X255306Y185306D01*
X275000Y205000D01*
X280000D01*
X290000Y215000D01*
X290000Y231000D01*
X293815Y234815D01*
X294277Y234623D01*
Y230000D01*
X294370Y229295D01*
X294642Y228638D01*
X295074Y228074D01*
X306277Y216872D01*
Y191128D01*
X297074Y181926D01*
X296642Y181362D01*
X296370Y180705D01*
X296277Y180000D01*
Y168835D01*
X295648Y168352D01*
X294895Y167370D01*
X294421Y166227D01*
X294259Y165000D01*
X294421Y163773D01*
X294895Y162630D01*
X295648Y161648D01*
X296277Y161165D01*
Y155000D01*
X296370Y154295D01*
X296642Y153638D01*
X297074Y153074D01*
X302074Y148074D01*
X302638Y147642D01*
X303295Y147370D01*
X304000Y147277D01*
X305709D01*
X305894Y146830D01*
X306648Y145848D01*
X307630Y145095D01*
X308773Y144621D01*
X310000Y144459D01*
X311227Y144621D01*
X312370Y145095D01*
X313352Y145848D01*
X314106Y146830D01*
X314579Y147973D01*
X314741Y149200D01*
Y150800D01*
X314579Y152027D01*
X314106Y153170D01*
X313352Y154152D01*
X312370Y154905D01*
X311227Y155379D01*
X310000Y155541D01*
X308773Y155379D01*
X307630Y154905D01*
X306648Y154152D01*
X305894Y153170D01*
X305709Y152723D01*
X305128D01*
X301723Y156128D01*
Y161165D01*
X302352Y161648D01*
X303105Y162630D01*
X303579Y163773D01*
X303700Y164692D01*
X303700Y164692D01*
X303741Y165000D01*
X303700Y165308D01*
X303700Y165308D01*
X303579Y166227D01*
X303105Y167370D01*
X302352Y168352D01*
X301723Y168835D01*
Y178872D01*
X310926Y188074D01*
X311358Y188638D01*
X311631Y189295D01*
X311723Y190000D01*
Y218000D01*
X311641Y218623D01*
X311631Y218705D01*
X311358Y219362D01*
X310926Y219926D01*
X299723Y231128D01*
Y235567D01*
X299839Y235640D01*
X300304Y235341D01*
X300259Y235000D01*
X300421Y233773D01*
X300894Y232630D01*
X301648Y231648D01*
X302630Y230894D01*
X303773Y230421D01*
X305000Y230259D01*
X306227Y230421D01*
X307370Y230894D01*
X308352Y231648D01*
X308835Y232277D01*
X337000D01*
X337705Y232369D01*
X338362Y232642D01*
X338926Y233074D01*
X341128Y235277D01*
X401872D01*
X405277Y231872D01*
Y223282D01*
X404777Y223075D01*
X403059Y224793D01*
X403102Y225456D01*
X403352Y225648D01*
X404106Y226630D01*
X404579Y227773D01*
X404741Y229000D01*
X404579Y230227D01*
X404106Y231370D01*
X403352Y232352D01*
X402370Y233105D01*
X401227Y233579D01*
X400000Y233741D01*
X398773Y233579D01*
X397630Y233105D01*
X396648Y232352D01*
X395895Y231370D01*
X395421Y230227D01*
X395259Y229000D01*
X395421Y227773D01*
X395895Y226630D01*
X396648Y225648D01*
X397277Y225165D01*
Y224000D01*
X397370Y223295D01*
X397642Y222638D01*
X398074Y222074D01*
X400277Y219872D01*
Y218282D01*
X399777Y218075D01*
X389637Y228214D01*
X389741Y229000D01*
X389579Y230227D01*
X389106Y231370D01*
X388352Y232352D01*
X387370Y233105D01*
X386227Y233579D01*
X385000Y233741D01*
X383773Y233579D01*
X382630Y233105D01*
X381648Y232352D01*
X380894Y231370D01*
X380421Y230227D01*
X380259Y229000D01*
X380421Y227773D01*
X380894Y226630D01*
X381648Y225648D01*
X382630Y224894D01*
X383773Y224421D01*
X385000Y224259D01*
X385786Y224363D01*
X395277Y214872D01*
Y203282D01*
X394777Y203075D01*
X390926Y206926D01*
X390362Y207358D01*
X389705Y207630D01*
X389000Y207723D01*
X388835D01*
X388352Y208352D01*
X387370Y209105D01*
X386227Y209579D01*
X385000Y209741D01*
X383773Y209579D01*
X382630Y209105D01*
X381648Y208352D01*
X381165Y207723D01*
X373835D01*
X373352Y208352D01*
X372370Y209105D01*
X371227Y209579D01*
X370000Y209741D01*
X368773Y209579D01*
X367630Y209105D01*
X366648Y208352D01*
X365895Y207370D01*
X365421Y206227D01*
X365259Y205000D01*
X365421Y203773D01*
X365895Y202630D01*
X366648Y201648D01*
X367630Y200895D01*
X368773Y200421D01*
X370000Y200259D01*
X371227Y200421D01*
X372370Y200895D01*
X373352Y201648D01*
X373835Y202277D01*
X381165D01*
X381648Y201648D01*
X382630Y200895D01*
X383773Y200421D01*
X385000Y200259D01*
X386227Y200421D01*
X387370Y200895D01*
X388352Y201648D01*
X388492Y201657D01*
X390277Y199872D01*
Y189000D01*
X390370Y188295D01*
X390642Y187638D01*
X391074Y187074D01*
X405074Y173074D01*
X405638Y172642D01*
X406295Y172370D01*
X407000Y172277D01*
X442000D01*
X442705Y172370D01*
X443362Y172642D01*
X443926Y173074D01*
X456214Y185363D01*
X457000Y185259D01*
X458227Y185421D01*
X459370Y185895D01*
X460352Y186648D01*
X461105Y187630D01*
X461579Y188773D01*
X461741Y190000D01*
X461579Y191227D01*
X461105Y192370D01*
X460352Y193352D01*
X459370Y194105D01*
X458227Y194579D01*
X457000Y194741D01*
X455773Y194579D01*
X454630Y194105D01*
X453648Y193352D01*
X452894Y192370D01*
X452421Y191227D01*
X452259Y190000D01*
X452363Y189214D01*
X440872Y177723D01*
X408128D01*
X395723Y190128D01*
Y192718D01*
X396223Y192925D01*
X406074Y183074D01*
X406638Y182642D01*
X407295Y182369D01*
X408000Y182277D01*
X410300D01*
Y180300D01*
X419700D01*
Y189700D01*
X410300D01*
Y187723D01*
X409128D01*
X400723Y196128D01*
Y200718D01*
X401223Y200925D01*
X409074Y193074D01*
X409638Y192642D01*
X410295Y192369D01*
X411000Y192277D01*
X411165D01*
X411648Y191648D01*
X412630Y190895D01*
X413773Y190421D01*
X415000Y190259D01*
X416227Y190421D01*
X417370Y190895D01*
X418352Y191648D01*
X418835Y192277D01*
X435872D01*
X437363Y190786D01*
X437259Y190000D01*
X437421Y188773D01*
X437894Y187630D01*
X438648Y186648D01*
X439630Y185895D01*
X440773Y185421D01*
X442000Y185259D01*
X443227Y185421D01*
X444370Y185895D01*
X445352Y186648D01*
X446105Y187630D01*
X446579Y188773D01*
X446741Y190000D01*
X446579Y191227D01*
X446105Y192370D01*
X445352Y193352D01*
X444370Y194105D01*
X443227Y194579D01*
X442000Y194741D01*
X441214Y194637D01*
X438926Y196926D01*
X438362Y197358D01*
X437705Y197631D01*
X437000Y197723D01*
X418835D01*
X418352Y198352D01*
X417370Y199105D01*
X416227Y199579D01*
X415000Y199741D01*
X413773Y199579D01*
X412630Y199105D01*
X411648Y198352D01*
X411508Y198343D01*
X405723Y204128D01*
Y209718D01*
X406223Y209925D01*
X410363Y205786D01*
X410259Y205000D01*
X410421Y203773D01*
X410894Y202630D01*
X411648Y201648D01*
X412630Y200895D01*
X413773Y200421D01*
X415000Y200259D01*
X416227Y200421D01*
X417370Y200895D01*
X418352Y201648D01*
X418835Y202277D01*
X421000D01*
X421705Y202369D01*
X422362Y202642D01*
X422926Y203074D01*
X431926Y212074D01*
X432358Y212638D01*
X432630Y213295D01*
X432641Y213377D01*
X432723Y214000D01*
Y226165D01*
X433352Y226648D01*
X433835Y227277D01*
X441165D01*
X441648Y226648D01*
X442630Y225894D01*
X443773Y225421D01*
X445000Y225259D01*
X446227Y225421D01*
X447370Y225894D01*
X448352Y226648D01*
X449106Y227630D01*
X449579Y228773D01*
X449741Y230000D01*
X449579Y231227D01*
X449106Y232370D01*
X448352Y233352D01*
X447370Y234105D01*
X446227Y234579D01*
X445000Y234741D01*
X443773Y234579D01*
X442630Y234105D01*
X441648Y233352D01*
X441165Y232723D01*
X433835D01*
X433352Y233352D01*
X432370Y234105D01*
X431227Y234579D01*
X430000Y234741D01*
X428773Y234579D01*
X427630Y234105D01*
X426648Y233352D01*
X425894Y232370D01*
X425421Y231227D01*
X425259Y230000D01*
X425421Y228773D01*
X425894Y227630D01*
X426648Y226648D01*
X427277Y226165D01*
Y215128D01*
X419872Y207723D01*
X418835D01*
X418352Y208352D01*
X417370Y209105D01*
X416227Y209579D01*
X415000Y209741D01*
X414396Y209661D01*
X414233Y209856D01*
X414492Y210326D01*
X415000Y210259D01*
X416227Y210421D01*
X417370Y210894D01*
X418352Y211648D01*
X419105Y212630D01*
X419579Y213773D01*
X419741Y215000D01*
X419579Y216227D01*
X419105Y217370D01*
X418352Y218352D01*
X417723Y218835D01*
Y244000D01*
Y246165D01*
X418352Y246648D01*
X418835Y247277D01*
X434872D01*
X436074Y246074D01*
X436638Y245642D01*
X437295Y245370D01*
X438000Y245277D01*
X470872D01*
X483074Y233074D01*
X483638Y232642D01*
X484295Y232369D01*
X485000Y232277D01*
X486165D01*
X486648Y231648D01*
X487630Y230894D01*
X488773Y230421D01*
X490000Y230259D01*
X490786Y230363D01*
X501941Y219207D01*
X501898Y218544D01*
X501648Y218352D01*
X500894Y217370D01*
X500421Y216227D01*
X500259Y215000D01*
X500421Y213773D01*
X500894Y212630D01*
X501648Y211648D01*
X502630Y210894D01*
X503773Y210421D01*
X505000Y210259D01*
X506227Y210421D01*
X507370Y210894D01*
X508352Y211648D01*
X509105Y212630D01*
X509579Y213773D01*
X509741Y215000D01*
X509579Y216227D01*
X509105Y217370D01*
X508352Y218352D01*
X507723Y218835D01*
Y220000D01*
X507641Y220623D01*
X507630Y220705D01*
X507358Y221362D01*
X506926Y221926D01*
X494637Y234214D01*
X494741Y235000D01*
X494579Y236227D01*
X494105Y237370D01*
X493352Y238352D01*
X492370Y239106D01*
X491227Y239579D01*
X490000Y239741D01*
X488773Y239579D01*
X487630Y239106D01*
X486648Y238352D01*
X486456Y238102D01*
X485793Y238059D01*
X473926Y249926D01*
X473362Y250358D01*
X472705Y250630D01*
X472000Y250723D01*
X439128D01*
X437926Y251926D01*
X437362Y252358D01*
X436705Y252630D01*
X436000Y252723D01*
X418835D01*
X418352Y253352D01*
X417370Y254105D01*
X416227Y254579D01*
X415308Y254700D01*
X415308Y254700D01*
X415000Y254741D01*
X414692Y254700D01*
X414692Y254700D01*
X413773Y254579D01*
X412630Y254105D01*
X411648Y253352D01*
X410894Y252370D01*
X410421Y251227D01*
X410259Y250000D01*
X410421Y248773D01*
X410894Y247630D01*
X411246Y247172D01*
X411025Y246723D01*
X338000D01*
X337295Y246631D01*
X336638Y246358D01*
X336074Y245926D01*
X334872Y244723D01*
X334282D01*
X334075Y245223D01*
X336128Y247277D01*
X375000D01*
X375705Y247370D01*
X376362Y247642D01*
X376926Y248074D01*
X383419Y254568D01*
X383773Y254421D01*
X385000Y254259D01*
X386227Y254421D01*
X387370Y254894D01*
X388352Y255648D01*
X388835Y256277D01*
X396165D01*
X396648Y255648D01*
X397630Y254894D01*
X398773Y254421D01*
X400000Y254259D01*
X401227Y254421D01*
X402370Y254894D01*
X403352Y255648D01*
X404106Y256630D01*
X404579Y257773D01*
X404741Y259000D01*
X404579Y260227D01*
X404106Y261370D01*
X403352Y262352D01*
X402370Y263106D01*
X401227Y263579D01*
X400000Y263741D01*
X398773Y263579D01*
X397630Y263106D01*
X396648Y262352D01*
X396165Y261723D01*
X388835D01*
X388352Y262352D01*
X387370Y263106D01*
X386227Y263579D01*
X385000Y263741D01*
X383773Y263579D01*
X382630Y263106D01*
X381648Y262352D01*
X380894Y261370D01*
X380421Y260227D01*
X380276Y259128D01*
X373872Y252723D01*
X362723D01*
Y258872D01*
X365262Y261410D01*
X365686Y261127D01*
X365323Y260253D01*
X365264Y259800D01*
X369200D01*
Y263736D01*
X368747Y263677D01*
X367873Y263314D01*
X367590Y263738D01*
X372128Y268277D01*
X386000D01*
X386705Y268370D01*
X387362Y268642D01*
X387926Y269074D01*
X400706Y281855D01*
X401139Y282418D01*
X401411Y283075D01*
X401421Y283157D01*
X401504Y283780D01*
Y287277D01*
X411167D01*
X411649Y286649D01*
X412631Y285895D01*
X413774Y285422D01*
X415001Y285260D01*
X416228Y285422D01*
X417372Y285895D01*
X418353Y286649D01*
X419107Y287630D01*
X419580Y288774D01*
X419742Y290001D01*
X419580Y291228D01*
X419107Y292371D01*
X418353Y293353D01*
X417372Y294106D01*
X416228Y294580D01*
X415001Y294741D01*
X413774Y294580D01*
X412631Y294106D01*
X411649Y293353D01*
X411167Y292724D01*
X403374D01*
X403097Y293140D01*
X403359Y293774D01*
X403521Y295001D01*
X403359Y296228D01*
X402886Y297371D01*
X402132Y298353D01*
X401151Y299106D01*
X400007Y299580D01*
X398780Y299741D01*
X397553Y299580D01*
X396410Y299106D01*
X395428Y298353D01*
X394675Y297371D01*
X394201Y296228D01*
X394040Y295001D01*
X394201Y293774D01*
X394675Y292630D01*
X395428Y291649D01*
X396057Y291166D01*
Y290001D01*
Y284908D01*
X384872Y273723D01*
X371000D01*
X370295Y273630D01*
X369638Y273358D01*
X369074Y272926D01*
X358074Y261926D01*
X357642Y261362D01*
X357369Y260705D01*
X357277Y260000D01*
Y252723D01*
X337377D01*
X337185Y253185D01*
X345341Y261341D01*
X345765Y261058D01*
X345421Y260227D01*
X345259Y259000D01*
X345421Y257773D01*
X345895Y256630D01*
X346648Y255648D01*
X347630Y254894D01*
X348773Y254421D01*
X350000Y254259D01*
X351227Y254421D01*
X352370Y254894D01*
X353352Y255648D01*
X354105Y256630D01*
X354579Y257773D01*
X354741Y259000D01*
X354579Y260227D01*
X354432Y260581D01*
X368128Y274277D01*
X382000D01*
X382705Y274370D01*
X383362Y274642D01*
X383926Y275074D01*
X391926Y283074D01*
X392358Y283638D01*
X392631Y284295D01*
X392723Y285000D01*
Y302872D01*
X412128Y322277D01*
X424085D01*
X424569Y321371D01*
X425382Y320382D01*
X426371Y319569D01*
X427500Y318966D01*
X428726Y318594D01*
X430000Y318469D01*
X431274Y318594D01*
X432500Y318966D01*
X433629Y319569D01*
X434618Y320382D01*
X435431Y321371D01*
X436034Y322500D01*
X436406Y323726D01*
X436531Y325000D01*
X436406Y326274D01*
X436034Y327500D01*
X435431Y328629D01*
X434618Y329618D01*
X433629Y330431D01*
X432500Y331034D01*
X431274Y331406D01*
X430000Y331531D01*
X428726Y331406D01*
X427500Y331034D01*
X426371Y330431D01*
X425382Y329618D01*
X424569Y328629D01*
X424085Y327723D01*
X411000D01*
X410295Y327630D01*
X409910Y327471D01*
X409638Y327358D01*
X409074Y326926D01*
X388074Y305926D01*
X387642Y305362D01*
X387369Y304705D01*
X387277Y304000D01*
Y286128D01*
X380872Y279723D01*
X367000D01*
X366295Y279630D01*
X365638Y279358D01*
X365074Y278926D01*
X349872Y263724D01*
X348773Y263579D01*
X347942Y263235D01*
X347659Y263659D01*
X365000Y281000D01*
X377000Y281000D01*
X385000Y289000D01*
X385000Y320000D01*
X415000Y350000D01*
X445000Y350000D01*
X455000Y340000D01*
D02*
G37*
G36*
X337169Y239021D02*
X335872Y237723D01*
X308835D01*
X308352Y238352D01*
X307799Y238777D01*
X307968Y239277D01*
X336000D01*
X336705Y239370D01*
X336886Y239445D01*
X337169Y239021D01*
D02*
G37*
G36*
X700000Y120000D02*
X191612D01*
X191476Y120481D01*
X191780Y120668D01*
X193157Y121843D01*
X194333Y123220D01*
X195278Y124763D01*
X195971Y126435D01*
X196394Y128195D01*
X196408Y128374D01*
X196536Y128471D01*
X205000D01*
X205585Y128587D01*
X206081Y128919D01*
X216081Y138919D01*
X216413Y139415D01*
X216529Y140000D01*
Y144500D01*
X224700D01*
Y147277D01*
X250761D01*
X250991Y146722D01*
X251744Y145740D01*
X252373Y145257D01*
Y138904D01*
X252466Y138199D01*
X252738Y137542D01*
X253171Y136978D01*
X267074Y123074D01*
X267638Y122642D01*
X268295Y122370D01*
X268377Y122359D01*
X269000Y122277D01*
X625000D01*
X625705Y122370D01*
X626362Y122642D01*
X626926Y123074D01*
X651926Y148074D01*
X652358Y148638D01*
X652631Y149295D01*
X652723Y150000D01*
Y211872D01*
X691926Y251074D01*
X692358Y251638D01*
X692630Y252295D01*
X692641Y252377D01*
X692723Y253000D01*
Y320000D01*
X692641Y320623D01*
X692630Y320705D01*
X692358Y321362D01*
X691926Y321926D01*
X673926Y339926D01*
X673362Y340358D01*
X672705Y340631D01*
X672000Y340723D01*
X662128D01*
X643269Y359582D01*
X642705Y360015D01*
X642049Y360287D01*
X641344Y360380D01*
X562250D01*
X553416Y369214D01*
X553519Y369999D01*
X553358Y371226D01*
X552884Y372370D01*
X552131Y373352D01*
X551149Y374105D01*
X550006Y374578D01*
X548779Y374740D01*
X547993Y374637D01*
X539704Y382926D01*
X539140Y383358D01*
X538483Y383630D01*
X537778Y383723D01*
X361000D01*
X360295Y383630D01*
X359638Y383358D01*
X359074Y382926D01*
X347649Y371500D01*
X338500D01*
Y360029D01*
X337915Y359913D01*
X337419Y359581D01*
X334366Y356529D01*
X327301D01*
X327153Y356500D01*
X327003D01*
X326864Y356442D01*
X326716Y356413D01*
X326591Y356329D01*
X326451Y356272D01*
X326345Y356165D01*
X326220Y356081D01*
X326136Y355956D01*
X326029Y355850D01*
X325972Y355711D01*
X325888Y355585D01*
X325859Y355437D01*
X325801Y355298D01*
X325742Y355000D01*
X324258D01*
X324199Y355298D01*
X324141Y355437D01*
X324112Y355585D01*
X324028Y355711D01*
X323971Y355850D01*
X323864Y355956D01*
X323780Y356081D01*
X323655Y356165D01*
X323549Y356272D01*
X323409Y356329D01*
X323284Y356413D01*
X323136Y356442D01*
X322997Y356500D01*
X322847D01*
X322699Y356529D01*
X297301D01*
X297153Y356500D01*
X297003D01*
X296864Y356442D01*
X296716Y356413D01*
X296591Y356329D01*
X296451Y356272D01*
X296345Y356165D01*
X296220Y356081D01*
X296136Y355956D01*
X296029Y355850D01*
X295972Y355711D01*
X295888Y355585D01*
X295859Y355437D01*
X295801Y355298D01*
X295742Y355000D01*
X294258D01*
X294199Y355298D01*
X294141Y355437D01*
X294112Y355585D01*
X294028Y355711D01*
X293970Y355850D01*
X293864Y355956D01*
X293780Y356081D01*
X293655Y356165D01*
X293549Y356272D01*
X293409Y356329D01*
X293284Y356413D01*
X293136Y356442D01*
X292997Y356500D01*
X292847D01*
X292699Y356529D01*
X272301D01*
X272153Y356500D01*
X272003D01*
X271864Y356442D01*
X271716Y356413D01*
X271591Y356329D01*
X271451Y356272D01*
X271345Y356165D01*
X271220Y356081D01*
X271136Y355956D01*
X271029Y355850D01*
X270972Y355711D01*
X270888Y355585D01*
X270859Y355437D01*
X270801Y355298D01*
X270742Y355000D01*
X269258D01*
X269199Y355298D01*
X269141Y355437D01*
X269112Y355585D01*
X269028Y355711D01*
X268970Y355850D01*
X268864Y355956D01*
X268780Y356081D01*
X268655Y356165D01*
X268549Y356272D01*
X268409Y356329D01*
X268284Y356413D01*
X268136Y356442D01*
X267997Y356500D01*
X267847D01*
X267699Y356529D01*
X242301D01*
X242153Y356500D01*
X242003D01*
X241864Y356442D01*
X241716Y356413D01*
X241591Y356329D01*
X241451Y356272D01*
X241345Y356165D01*
X241220Y356081D01*
X241136Y355956D01*
X241030Y355850D01*
X240972Y355711D01*
X240888Y355585D01*
X240859Y355437D01*
X240801Y355298D01*
X240742Y355000D01*
X239258D01*
X239199Y355298D01*
X239141Y355437D01*
X239112Y355585D01*
X239028Y355711D01*
X238970Y355850D01*
X238864Y355956D01*
X238780Y356081D01*
X238655Y356165D01*
X238549Y356272D01*
X238409Y356329D01*
X238284Y356413D01*
X238136Y356442D01*
X237997Y356500D01*
X237847D01*
X237699Y356529D01*
X217301D01*
X217153Y356500D01*
X217003D01*
X216864Y356442D01*
X216716Y356413D01*
X216591Y356329D01*
X216451Y356272D01*
X216345Y356165D01*
X216220Y356081D01*
X216136Y355956D01*
X216030Y355850D01*
X215972Y355711D01*
X215888Y355585D01*
X215859Y355437D01*
X215801Y355298D01*
X215742Y355000D01*
X214258D01*
X214199Y355298D01*
X214141Y355437D01*
X214112Y355585D01*
X214028Y355711D01*
X213970Y355850D01*
X213864Y355956D01*
X213780Y356081D01*
X213655Y356165D01*
X213549Y356272D01*
X213409Y356329D01*
X213284Y356413D01*
X213136Y356442D01*
X212997Y356500D01*
X212847D01*
X212699Y356529D01*
X187301D01*
X187153Y356500D01*
X187003D01*
X186864Y356442D01*
X186716Y356413D01*
X186591Y356329D01*
X186451Y356272D01*
X186345Y356165D01*
X186220Y356081D01*
X186136Y355956D01*
X186030Y355850D01*
X185972Y355711D01*
X185888Y355585D01*
X185859Y355437D01*
X185801Y355298D01*
X185742Y355000D01*
X185430D01*
X185329Y354899D01*
X185329Y354899D01*
X185000Y354942D01*
X183721Y354774D01*
X182529Y354280D01*
X181505Y353495D01*
X180720Y352471D01*
X180226Y351279D01*
X180058Y350000D01*
X180096Y349706D01*
X180000Y349610D01*
Y349258D01*
X179702Y349199D01*
X179562Y349141D01*
X179415Y349112D01*
X179289Y349028D01*
X179150Y348971D01*
X179044Y348864D01*
X178919Y348780D01*
X178835Y348655D01*
X178728Y348549D01*
X178671Y348409D01*
X178587Y348284D01*
X178558Y348136D01*
X178500Y347997D01*
Y347847D01*
X178471Y347699D01*
Y332040D01*
X178500Y331892D01*
Y331741D01*
X178558Y331602D01*
X178587Y331455D01*
X178671Y331329D01*
X178728Y331190D01*
X178835Y331084D01*
X178919Y330958D01*
X179044Y330875D01*
X179150Y330768D01*
X179289Y330711D01*
X179415Y330627D01*
X179562Y330597D01*
X179702Y330540D01*
X180000Y330481D01*
Y329520D01*
X179702Y329460D01*
X179562Y329402D01*
X179415Y329373D01*
X179289Y329290D01*
X179150Y329232D01*
X179044Y329125D01*
X178919Y329042D01*
X178835Y328916D01*
X178728Y328810D01*
X178671Y328671D01*
X178587Y328545D01*
X178558Y328398D01*
X178500Y328258D01*
Y328108D01*
X178471Y327960D01*
Y276779D01*
X178500Y276631D01*
Y276480D01*
X178558Y276341D01*
X178587Y276193D01*
X178671Y276068D01*
X178728Y275929D01*
X178835Y275822D01*
X178919Y275697D01*
X179044Y275613D01*
X179150Y275507D01*
X179289Y275449D01*
X179415Y275365D01*
X179562Y275336D01*
X179702Y275278D01*
X179820Y275255D01*
Y274745D01*
X179702Y274722D01*
X179562Y274664D01*
X179415Y274635D01*
X179289Y274551D01*
X179150Y274493D01*
X179044Y274387D01*
X178919Y274303D01*
X178835Y274178D01*
X178728Y274071D01*
X178671Y273932D01*
X178587Y273807D01*
X178558Y273659D01*
X178500Y273520D01*
Y273369D01*
X178471Y273221D01*
Y236778D01*
X178500Y236631D01*
Y236480D01*
X178558Y236341D01*
X178587Y236193D01*
X178671Y236068D01*
X178728Y235929D01*
X178835Y235822D01*
X178919Y235697D01*
X179044Y235613D01*
X179150Y235507D01*
X179289Y235449D01*
X179415Y235366D01*
X179562Y235336D01*
X179702Y235279D01*
X179820Y235255D01*
Y234745D01*
X179702Y234721D01*
X179562Y234664D01*
X179415Y234634D01*
X179289Y234551D01*
X179150Y234493D01*
X179044Y234387D01*
X178919Y234303D01*
X178835Y234178D01*
X178728Y234071D01*
X178671Y233932D01*
X178587Y233807D01*
X178558Y233659D01*
X178500Y233520D01*
Y233369D01*
X178471Y233222D01*
Y196779D01*
X178500Y196631D01*
Y196480D01*
X178558Y196341D01*
X178587Y196193D01*
X178671Y196068D01*
X178728Y195929D01*
X178835Y195822D01*
X178919Y195697D01*
X179044Y195613D01*
X179150Y195507D01*
X179289Y195449D01*
X179415Y195366D01*
X179562Y195336D01*
X179702Y195279D01*
X179820Y195255D01*
Y194745D01*
X179702Y194721D01*
X179562Y194664D01*
X179415Y194634D01*
X179289Y194551D01*
X179150Y194493D01*
X179044Y194387D01*
X178919Y194303D01*
X178835Y194178D01*
X178728Y194071D01*
X178671Y193932D01*
X178587Y193807D01*
X178558Y193659D01*
X178500Y193520D01*
Y193369D01*
X178471Y193221D01*
Y140826D01*
X178500Y140679D01*
Y140528D01*
X178558Y140389D01*
X178587Y140241D01*
X178633Y140172D01*
X178697Y139911D01*
X178505Y139507D01*
X178220Y139332D01*
X176843Y138157D01*
X175668Y136780D01*
X175481Y136476D01*
X175000Y136612D01*
Y385000D01*
X700000D01*
Y120000D01*
D02*
G37*
G36*
X542463Y372463D02*
X525000Y355000D01*
X525000Y340000D01*
X503000Y318000D01*
Y296529D01*
X494567D01*
X494342Y297029D01*
X494986Y297869D01*
X495475Y299049D01*
X495537Y299515D01*
X484464D01*
X484525Y299049D01*
X485013Y297869D01*
X485658Y297029D01*
X485433Y296529D01*
X470634D01*
X456529Y310633D01*
Y340000D01*
X456413Y340585D01*
X456081Y341081D01*
X446081Y351081D01*
X445585Y351413D01*
X445000Y351529D01*
X415000Y351529D01*
X414512Y351432D01*
X414415Y351413D01*
X413918Y351081D01*
X383918Y321081D01*
X383587Y320585D01*
X383471Y320000D01*
X383471Y289633D01*
X376366Y282529D01*
X365000Y282529D01*
X364415Y282413D01*
X364215Y282279D01*
X363868Y282649D01*
X363931Y282731D01*
X364384Y283825D01*
X364539Y285000D01*
X364384Y286175D01*
X363931Y287269D01*
X363209Y288209D01*
X362269Y288931D01*
X361175Y289384D01*
X360000Y289539D01*
X358825Y289384D01*
X357731Y288931D01*
X356791Y288209D01*
X356069Y287269D01*
X355616Y286175D01*
X355461Y285000D01*
X355541Y284392D01*
X350786Y279637D01*
X350000Y279741D01*
X348773Y279579D01*
X347630Y279105D01*
X346648Y278352D01*
X345895Y277370D01*
X345421Y276227D01*
X345259Y275000D01*
X345363Y274214D01*
X325872Y254723D01*
X321633D01*
X321534Y255223D01*
X322522Y255632D01*
X323566Y256434D01*
X324213Y257277D01*
X325000D01*
X325705Y257369D01*
X326362Y257642D01*
X326926Y258074D01*
X336926Y268074D01*
X337358Y268638D01*
X337631Y269295D01*
X337723Y270000D01*
Y271165D01*
X338352Y271648D01*
X339106Y272630D01*
X339579Y273773D01*
X339741Y275000D01*
X339579Y276227D01*
X339106Y277370D01*
X338352Y278352D01*
X337370Y279105D01*
X336227Y279579D01*
X335000Y279741D01*
X333773Y279579D01*
X332630Y279105D01*
X331648Y278352D01*
X330894Y277370D01*
X330421Y276227D01*
X330259Y275000D01*
X330421Y273773D01*
X330894Y272630D01*
X331648Y271648D01*
X331898Y271456D01*
X331941Y270793D01*
X324333Y263184D01*
X323834Y263217D01*
X323566Y263566D01*
X322522Y264368D01*
X321648Y264729D01*
Y265271D01*
X322522Y265633D01*
X323566Y266434D01*
X324367Y267478D01*
X324871Y268695D01*
X325043Y270000D01*
X324871Y271305D01*
X324367Y272522D01*
X323566Y273566D01*
X322522Y274367D01*
X321778Y274675D01*
Y275217D01*
X322572Y275545D01*
X323637Y276363D01*
X324455Y277428D01*
X324969Y278669D01*
X325039Y279200D01*
X314961D01*
X315031Y278669D01*
X315545Y277428D01*
X316363Y276363D01*
X317428Y275545D01*
X318221Y275217D01*
Y274675D01*
X317478Y274367D01*
X316434Y273566D01*
X315787Y272723D01*
X315000D01*
X314295Y272631D01*
X313638Y272358D01*
X313074Y271926D01*
X309207Y268059D01*
X308544Y268102D01*
X308352Y268352D01*
X307370Y269106D01*
X306227Y269579D01*
X305000Y269741D01*
X303773Y269579D01*
X302630Y269106D01*
X301648Y268352D01*
X301456Y268102D01*
X300793Y268059D01*
X296926Y271926D01*
X296362Y272358D01*
X295705Y272631D01*
X295000Y272723D01*
X283835D01*
X283352Y273352D01*
X282370Y274106D01*
X281227Y274579D01*
X280328Y274697D01*
Y274698D01*
X280000Y274741D01*
X279672Y274698D01*
Y274697D01*
X278773Y274579D01*
X277630Y274106D01*
X276648Y273352D01*
X275894Y272370D01*
X275421Y271227D01*
X275259Y270000D01*
X275421Y268773D01*
X275894Y267630D01*
X276648Y266648D01*
X277630Y265895D01*
X278773Y265421D01*
X280000Y265259D01*
X281227Y265421D01*
X282370Y265895D01*
X283352Y266648D01*
X283835Y267277D01*
X293872D01*
X298074Y263074D01*
X298232Y262953D01*
X297980Y262517D01*
X297705Y262631D01*
X297000Y262723D01*
X283835D01*
X283352Y263352D01*
X282370Y264106D01*
X281227Y264579D01*
X280000Y264741D01*
X278773Y264579D01*
X277630Y264106D01*
X276648Y263352D01*
X275894Y262370D01*
X275421Y261227D01*
X275259Y260000D01*
X275421Y258773D01*
X275894Y257630D01*
X276648Y256648D01*
X277630Y255894D01*
X278773Y255421D01*
X280000Y255259D01*
X281227Y255421D01*
X282370Y255894D01*
X283352Y256648D01*
X283835Y257277D01*
X295872D01*
X297925Y255223D01*
X297718Y254723D01*
X287000D01*
X286295Y254630D01*
X285638Y254358D01*
X285074Y253926D01*
X284207Y253059D01*
X283544Y253102D01*
X283352Y253352D01*
X282370Y254105D01*
X281227Y254579D01*
X280000Y254741D01*
X278773Y254579D01*
X277630Y254105D01*
X276648Y253352D01*
X275894Y252370D01*
X275421Y251227D01*
X275259Y250000D01*
X275421Y248773D01*
X275894Y247630D01*
X276648Y246648D01*
X277630Y245895D01*
X278773Y245421D01*
X280000Y245259D01*
X281227Y245421D01*
X282370Y245895D01*
X283352Y246648D01*
X283835Y247277D01*
X285000D01*
X285705Y247370D01*
X286362Y247642D01*
X286926Y248074D01*
X288128Y249277D01*
X289718D01*
X289925Y248777D01*
X283974Y242825D01*
X283425Y242851D01*
X283176Y243176D01*
X282246Y243889D01*
X281162Y244338D01*
X280000Y244491D01*
X278838Y244338D01*
X277754Y243889D01*
X276824Y243176D01*
X276111Y242246D01*
X275662Y241162D01*
X275509Y240000D01*
X275662Y238838D01*
X276111Y237754D01*
X276824Y236824D01*
X277277Y236477D01*
Y233835D01*
X276648Y233352D01*
X275894Y232370D01*
X275421Y231227D01*
X275259Y230000D01*
X275421Y228773D01*
X275894Y227630D01*
X276648Y226648D01*
X277277Y226165D01*
Y223835D01*
X276648Y223352D01*
X275894Y222370D01*
X275421Y221227D01*
X275259Y220000D01*
X275421Y218773D01*
X275894Y217630D01*
X276648Y216648D01*
X277630Y215895D01*
X278773Y215421D01*
X280000Y215259D01*
X281227Y215421D01*
X282370Y215895D01*
X283352Y216648D01*
X284105Y217630D01*
X284579Y218773D01*
X284741Y220000D01*
X284579Y221227D01*
X284105Y222370D01*
X283352Y223352D01*
X282723Y223835D01*
Y226165D01*
X283352Y226648D01*
X284105Y227630D01*
X284579Y228773D01*
X284741Y230000D01*
X284579Y231227D01*
X284105Y232370D01*
X283352Y233352D01*
X282723Y233835D01*
Y236477D01*
X283176Y236824D01*
X283523Y237277D01*
X285000D01*
X285705Y237369D01*
X286362Y237642D01*
X286926Y238074D01*
X293128Y244277D01*
X299718D01*
X299925Y243777D01*
X295074Y238926D01*
X294642Y238362D01*
X294370Y237705D01*
X294277Y237000D01*
Y236700D01*
X293815Y236344D01*
X293815D01*
X293582Y236298D01*
X293230Y236228D01*
X293230Y236228D01*
X293230D01*
X293063Y236116D01*
X292733Y235896D01*
X292733Y235896D01*
X292733Y235896D01*
X288919Y232081D01*
X288587Y231585D01*
X288471Y231000D01*
X288471Y215634D01*
X279366Y206529D01*
X275000D01*
X274415Y206413D01*
X273919Y206081D01*
X254224Y186387D01*
X254152Y186280D01*
X254071Y186272D01*
X253932Y186329D01*
X253807Y186413D01*
X253659Y186442D01*
X253520Y186500D01*
X253369D01*
X253222Y186529D01*
X239000D01*
X238415Y186413D01*
X237919Y186081D01*
X229959Y178121D01*
X229535Y178405D01*
X229677Y178747D01*
X229736Y179200D01*
X225800D01*
Y175264D01*
X226253Y175324D01*
X226595Y175465D01*
X226879Y175041D01*
X213919Y162081D01*
X213587Y161585D01*
X213471Y161000D01*
Y155876D01*
X213492Y155769D01*
X213486Y155661D01*
X213549Y155479D01*
X213587Y155290D01*
X213647Y155200D01*
X213683Y155098D01*
X213812Y154954D01*
X213919Y154794D01*
X214009Y154734D01*
X214081Y154653D01*
X214581Y154277D01*
X214755Y154194D01*
X214915Y154087D01*
X215000Y154070D01*
Y152578D01*
X214500Y152479D01*
X214193Y153221D01*
X213423Y154223D01*
X212421Y154993D01*
X211253Y155476D01*
X210800Y155536D01*
Y150000D01*
Y144464D01*
X211253Y144524D01*
X212421Y145007D01*
X213423Y145777D01*
X214193Y146779D01*
X214500Y147521D01*
X215000Y147422D01*
Y140000D01*
X205000Y130000D01*
X196536D01*
X196394Y131805D01*
X195971Y133565D01*
X195278Y135237D01*
X194333Y136780D01*
X193157Y138157D01*
X191780Y139332D01*
X190237Y140278D01*
X188565Y140971D01*
X186805Y141393D01*
X185000Y141536D01*
X183195Y141393D01*
X181435Y140971D01*
X180416Y140549D01*
X180000Y140826D01*
Y193221D01*
X180500Y193321D01*
X180807Y192579D01*
X181577Y191577D01*
X182579Y190807D01*
X183747Y190324D01*
X184200Y190264D01*
Y195000D01*
Y199736D01*
X183747Y199676D01*
X182579Y199193D01*
X181577Y198423D01*
X180807Y197421D01*
X180500Y196679D01*
X180000Y196779D01*
Y233222D01*
X180500Y233321D01*
X180807Y232579D01*
X181577Y231577D01*
X182579Y230807D01*
X183747Y230324D01*
X184200Y230264D01*
Y235000D01*
Y239736D01*
X183747Y239676D01*
X182579Y239193D01*
X181577Y238423D01*
X180807Y237421D01*
X180500Y236679D01*
X180000Y236778D01*
Y273221D01*
X180500Y273321D01*
X180807Y272579D01*
X181577Y271577D01*
X182579Y270807D01*
X183747Y270323D01*
X184200Y270264D01*
Y275000D01*
Y279736D01*
X183747Y279677D01*
X182579Y279193D01*
X181577Y278423D01*
X180807Y277421D01*
X180500Y276679D01*
X180000Y276779D01*
Y327960D01*
X180500Y328060D01*
X180720Y327529D01*
X181505Y326505D01*
X182529Y325720D01*
X183721Y325226D01*
X185000Y325058D01*
X186279Y325226D01*
X187471Y325720D01*
X188495Y326505D01*
X189280Y327529D01*
X189774Y328721D01*
X189942Y330000D01*
X189774Y331279D01*
X189280Y332471D01*
X188495Y333495D01*
X187471Y334280D01*
X186279Y334774D01*
X185000Y334942D01*
X183721Y334774D01*
X182529Y334280D01*
X181505Y333495D01*
X180720Y332471D01*
X180500Y331940D01*
X180000Y332040D01*
Y347699D01*
X180500Y347798D01*
X180632Y347478D01*
X181434Y346434D01*
X182478Y345633D01*
X183695Y345129D01*
X184200Y345062D01*
Y350000D01*
X185000D01*
Y350800D01*
X189938D01*
X189871Y351305D01*
X189367Y352522D01*
X188566Y353566D01*
X187522Y354367D01*
X187202Y354500D01*
X187301Y355000D01*
X212699D01*
X212798Y354500D01*
X212478Y354367D01*
X211434Y353566D01*
X210632Y352522D01*
X210129Y351305D01*
X210062Y350800D01*
X219938D01*
X219871Y351305D01*
X219368Y352522D01*
X218566Y353566D01*
X217522Y354367D01*
X217202Y354500D01*
X217301Y355000D01*
X237699D01*
X237798Y354500D01*
X237478Y354367D01*
X236434Y353566D01*
X235632Y352522D01*
X235129Y351305D01*
X235062Y350800D01*
X244938D01*
X244871Y351305D01*
X244368Y352522D01*
X243566Y353566D01*
X242522Y354367D01*
X242202Y354500D01*
X242301Y355000D01*
X267699D01*
X267798Y354500D01*
X267478Y354367D01*
X266434Y353566D01*
X265633Y352522D01*
X265129Y351305D01*
X265062Y350800D01*
X274938D01*
X274871Y351305D01*
X274367Y352522D01*
X273566Y353566D01*
X272522Y354367D01*
X272202Y354500D01*
X272301Y355000D01*
X292699D01*
X292798Y354500D01*
X292478Y354367D01*
X291434Y353566D01*
X290633Y352522D01*
X290129Y351305D01*
X290062Y350800D01*
X299938D01*
X299871Y351305D01*
X299367Y352522D01*
X298566Y353566D01*
X297522Y354367D01*
X297202Y354500D01*
X297301Y355000D01*
X322699D01*
X322798Y354500D01*
X322478Y354367D01*
X321434Y353566D01*
X320633Y352522D01*
X320129Y351305D01*
X320062Y350800D01*
X329938D01*
X329871Y351305D01*
X329367Y352522D01*
X328566Y353566D01*
X327522Y354367D01*
X327202Y354500D01*
X327301Y355000D01*
X335000D01*
X338500Y358500D01*
X351500D01*
Y367649D01*
X362128Y378277D01*
X446056D01*
Y373834D01*
X445427Y373352D01*
X444673Y372370D01*
X444200Y371226D01*
X444038Y369999D01*
X444200Y368772D01*
X444673Y367629D01*
X445427Y366647D01*
X446409Y365894D01*
X447552Y365420D01*
X448779Y365259D01*
X450006Y365420D01*
X451149Y365894D01*
X452131Y366647D01*
X452884Y367629D01*
X453358Y368772D01*
X453519Y369999D01*
X453358Y371226D01*
X452884Y372370D01*
X452131Y373352D01*
X451502Y373834D01*
Y378277D01*
X536650D01*
X542463Y372463D01*
D02*
G37*
%LPC*%
G36*
X224200Y184736D02*
X223747Y184676D01*
X222579Y184193D01*
X221577Y183423D01*
X220807Y182421D01*
X220323Y181253D01*
X220264Y180800D01*
X224200D01*
Y184736D01*
D02*
G37*
G36*
X669736Y184200D02*
X665800D01*
Y180264D01*
X666253Y180324D01*
X667421Y180807D01*
X668423Y181577D01*
X669193Y182579D01*
X669676Y183747D01*
X669736Y184200D01*
D02*
G37*
G36*
X664200Y189736D02*
X663747Y189676D01*
X662579Y189193D01*
X661577Y188423D01*
X660807Y187421D01*
X660323Y186253D01*
X660264Y185800D01*
X664200D01*
Y189736D01*
D02*
G37*
G36*
X665800D02*
Y185800D01*
X669736D01*
X669676Y186253D01*
X669193Y187421D01*
X668423Y188423D01*
X667421Y189193D01*
X666253Y189676D01*
X665800Y189736D01*
D02*
G37*
G36*
X331200Y189200D02*
X327264D01*
X327324Y188747D01*
X327807Y187579D01*
X328577Y186577D01*
X329579Y185807D01*
X330747Y185324D01*
X331200Y185264D01*
Y189200D01*
D02*
G37*
G36*
X225800Y184736D02*
Y180800D01*
X229736D01*
X229677Y181253D01*
X229193Y182421D01*
X228423Y183423D01*
X227421Y184193D01*
X226253Y184676D01*
X225800Y184736D01*
D02*
G37*
G36*
X276326Y189200D02*
X272390D01*
X272449Y188747D01*
X272933Y187579D01*
X273703Y186577D01*
X274705Y185807D01*
X275873Y185324D01*
X276326Y185264D01*
Y189200D01*
D02*
G37*
G36*
X369200Y174800D02*
X365200D01*
Y170800D01*
X369200D01*
Y174800D01*
D02*
G37*
G36*
X374800D02*
X370800D01*
Y170800D01*
X374800D01*
Y174800D01*
D02*
G37*
G36*
X329200Y169800D02*
X325200D01*
Y165800D01*
X329200D01*
Y169800D01*
D02*
G37*
G36*
X334800D02*
X330800D01*
Y165800D01*
X334800D01*
Y169800D01*
D02*
G37*
G36*
X460000Y244741D02*
X458773Y244579D01*
X457630Y244106D01*
X456648Y243352D01*
X455895Y242370D01*
X455421Y241227D01*
X455259Y240000D01*
X455421Y238773D01*
X455895Y237630D01*
X456648Y236648D01*
X457630Y235894D01*
X458773Y235421D01*
X460000Y235259D01*
X461227Y235421D01*
X462370Y235894D01*
X463352Y236648D01*
X463835Y237277D01*
X468872D01*
X487277Y218872D01*
Y205360D01*
X487369Y204656D01*
X487642Y203999D01*
X488074Y203435D01*
X498435Y193074D01*
X498999Y192642D01*
X499656Y192369D01*
X500360Y192277D01*
X501165D01*
X501648Y191648D01*
X502630Y190895D01*
X503773Y190421D01*
X505000Y190259D01*
X506227Y190421D01*
X507370Y190895D01*
X508352Y191648D01*
X508544Y191898D01*
X509207Y191941D01*
X516941Y184207D01*
X516898Y183544D01*
X516648Y183352D01*
X515895Y182370D01*
X515421Y181227D01*
X515259Y180000D01*
X515421Y178773D01*
X515895Y177630D01*
X516648Y176648D01*
X517630Y175895D01*
X518773Y175421D01*
X520000Y175259D01*
X521227Y175421D01*
X522370Y175895D01*
X523352Y176648D01*
X524106Y177630D01*
X524579Y178773D01*
X524741Y180000D01*
X524579Y181227D01*
X524106Y182370D01*
X523352Y183352D01*
X522723Y183835D01*
Y185000D01*
X522631Y185705D01*
X522358Y186362D01*
X521926Y186926D01*
X511926Y196926D01*
X511362Y197358D01*
X510705Y197631D01*
X510000Y197723D01*
X508835D01*
X508352Y198352D01*
X507370Y199105D01*
X506227Y199579D01*
X505000Y199741D01*
X503773Y199579D01*
X502630Y199105D01*
X501648Y198352D01*
X501537Y198207D01*
X501038Y198174D01*
X492723Y206488D01*
Y220000D01*
X492630Y220705D01*
X492358Y221362D01*
X491926Y221926D01*
X471926Y241926D01*
X471362Y242358D01*
X470705Y242631D01*
X470000Y242723D01*
X463835D01*
X463352Y243352D01*
X462370Y244106D01*
X461227Y244579D01*
X460000Y244741D01*
D02*
G37*
G36*
X259736Y179200D02*
X255800D01*
Y175264D01*
X256253Y175324D01*
X257421Y175807D01*
X258423Y176577D01*
X259193Y177579D01*
X259677Y178747D01*
X259736Y179200D01*
D02*
G37*
G36*
X664200Y184200D02*
X660264D01*
X660323Y183747D01*
X660807Y182579D01*
X661577Y181577D01*
X662579Y180807D01*
X663747Y180324D01*
X664200Y180264D01*
Y184200D01*
D02*
G37*
G36*
X224200Y179200D02*
X220264D01*
X220323Y178747D01*
X220807Y177579D01*
X221577Y176577D01*
X222579Y175807D01*
X223747Y175324D01*
X224200Y175264D01*
Y179200D01*
D02*
G37*
G36*
X254200D02*
X250264D01*
X250324Y178747D01*
X250807Y177579D01*
X251577Y176577D01*
X252579Y175807D01*
X253747Y175324D01*
X254200Y175264D01*
Y179200D01*
D02*
G37*
G36*
X460000Y234741D02*
X458773Y234579D01*
X457630Y234105D01*
X456648Y233352D01*
X455895Y232370D01*
X455421Y231227D01*
X455259Y230000D01*
X455421Y228773D01*
X455895Y227630D01*
X456648Y226648D01*
X457277Y226165D01*
Y224983D01*
X457000Y224741D01*
X455773Y224579D01*
X454630Y224106D01*
X453648Y223352D01*
X453165Y222723D01*
X445835D01*
X445352Y223352D01*
X444370Y224106D01*
X443227Y224579D01*
X442000Y224741D01*
X440773Y224579D01*
X439630Y224106D01*
X438648Y223352D01*
X437894Y222370D01*
X437421Y221227D01*
X437259Y220000D01*
X437421Y218773D01*
X437894Y217630D01*
X438648Y216648D01*
X439630Y215895D01*
X440773Y215421D01*
X442000Y215259D01*
X443227Y215421D01*
X444370Y215895D01*
X445352Y216648D01*
X445835Y217277D01*
X453165D01*
X453648Y216648D01*
X454630Y215895D01*
X455773Y215421D01*
X457000Y215259D01*
X457304Y214795D01*
X457370Y214295D01*
X457642Y213638D01*
X458074Y213074D01*
X468074Y203074D01*
X468638Y202642D01*
X469295Y202369D01*
X470000Y202277D01*
X471165D01*
X471648Y201648D01*
X472630Y200895D01*
X473773Y200421D01*
X475000Y200259D01*
X476227Y200421D01*
X477370Y200895D01*
X478352Y201648D01*
X479106Y202630D01*
X479579Y203773D01*
X479741Y205000D01*
X479579Y206227D01*
X479106Y207370D01*
X478352Y208352D01*
X477370Y209105D01*
X476227Y209579D01*
X475000Y209741D01*
X473773Y209579D01*
X472630Y209105D01*
X471648Y208352D01*
X471456Y208102D01*
X470793Y208059D01*
X462723Y216128D01*
Y220000D01*
Y226165D01*
X463352Y226648D01*
X464106Y227630D01*
X464579Y228773D01*
X464741Y230000D01*
X464579Y231227D01*
X464106Y232370D01*
X463352Y233352D01*
X462370Y234105D01*
X461227Y234579D01*
X460000Y234741D01*
D02*
G37*
G36*
X195000Y239741D02*
X193773Y239579D01*
X192630Y239106D01*
X191648Y238352D01*
X190895Y237370D01*
X190421Y236227D01*
X190303Y235328D01*
X190302D01*
X190259Y235000D01*
X190302Y234672D01*
X190303D01*
X190421Y233773D01*
X190895Y232630D01*
X191648Y231648D01*
X192630Y230894D01*
X193773Y230421D01*
X195000Y230259D01*
X195786Y230363D01*
X199074Y227074D01*
X199638Y226642D01*
X200295Y226370D01*
X200377Y226359D01*
X201000Y226277D01*
X206165D01*
X206648Y225648D01*
X207630Y224894D01*
X208773Y224421D01*
X210000Y224259D01*
X211227Y224421D01*
X212370Y224894D01*
X213352Y225648D01*
X214106Y226630D01*
X214579Y227773D01*
X214741Y229000D01*
X214579Y230227D01*
X214106Y231370D01*
X213352Y232352D01*
X212370Y233105D01*
X211227Y233579D01*
X210000Y233741D01*
X208773Y233579D01*
X207630Y233105D01*
X206648Y232352D01*
X206165Y231723D01*
X202128D01*
X199637Y234214D01*
X199741Y235000D01*
X199579Y236227D01*
X199105Y237370D01*
X198352Y238352D01*
X197370Y239106D01*
X196227Y239579D01*
X195000Y239741D01*
D02*
G37*
G36*
X475000Y219741D02*
X473773Y219579D01*
X472630Y219106D01*
X471648Y218352D01*
X470894Y217370D01*
X470421Y216227D01*
X470259Y215000D01*
X470421Y213773D01*
X470894Y212630D01*
X471648Y211648D01*
X472630Y210894D01*
X473773Y210421D01*
X475000Y210259D01*
X476227Y210421D01*
X477370Y210894D01*
X478352Y211648D01*
X479106Y212630D01*
X479579Y213773D01*
X479741Y215000D01*
X479579Y216227D01*
X479106Y217370D01*
X478352Y218352D01*
X477370Y219106D01*
X476227Y219579D01*
X475000Y219741D01*
D02*
G37*
G36*
X250000Y224741D02*
X248773Y224579D01*
X247630Y224106D01*
X246648Y223352D01*
X245895Y222370D01*
X245421Y221227D01*
X245259Y220000D01*
X245017Y219723D01*
X242835D01*
X242352Y220352D01*
X241370Y221106D01*
X240227Y221579D01*
X239000Y221741D01*
X237773Y221579D01*
X236630Y221106D01*
X235648Y220352D01*
X234894Y219370D01*
X234421Y218227D01*
X234259Y217000D01*
X234421Y215773D01*
X234894Y214630D01*
X235648Y213648D01*
X236630Y212895D01*
X237773Y212421D01*
X239000Y212259D01*
X240227Y212421D01*
X241370Y212895D01*
X242352Y213648D01*
X242835Y214277D01*
X247000D01*
X247705Y214370D01*
X248362Y214642D01*
X248926Y215074D01*
X249214Y215363D01*
X250000Y215259D01*
X251227Y215421D01*
X252370Y215895D01*
X253352Y216648D01*
X254105Y217630D01*
X254579Y218773D01*
X254741Y220000D01*
X254579Y221227D01*
X254105Y222370D01*
X253352Y223352D01*
X252370Y224106D01*
X251227Y224579D01*
X250000Y224741D01*
D02*
G37*
G36*
X189736Y234200D02*
X185800D01*
Y230264D01*
X186253Y230324D01*
X187421Y230807D01*
X188423Y231577D01*
X189193Y232579D01*
X189676Y233747D01*
X189736Y234200D01*
D02*
G37*
G36*
X185800Y239736D02*
Y235800D01*
X189736D01*
X189676Y236253D01*
X189193Y237421D01*
X188423Y238423D01*
X187421Y239193D01*
X186253Y239676D01*
X185800Y239736D01*
D02*
G37*
G36*
X489200Y244200D02*
X485250D01*
Y240250D01*
X489200D01*
Y244200D01*
D02*
G37*
G36*
X250000Y234741D02*
X248773Y234579D01*
X247630Y234105D01*
X246648Y233352D01*
X246165Y232723D01*
X246000D01*
X245377Y232641D01*
X245295Y232630D01*
X244638Y232358D01*
X244222Y232039D01*
X243757Y232031D01*
X243544Y232102D01*
X243352Y232352D01*
X242370Y233105D01*
X241227Y233579D01*
X240000Y233741D01*
X238773Y233579D01*
X237630Y233105D01*
X236648Y232352D01*
X235894Y231370D01*
X235421Y230227D01*
X235259Y229000D01*
X235421Y227773D01*
X235894Y226630D01*
X236648Y225648D01*
X237630Y224894D01*
X238773Y224421D01*
X240000Y224259D01*
X241227Y224421D01*
X242370Y224894D01*
X243352Y225648D01*
X243835Y226277D01*
X245000D01*
X245705Y226370D01*
X246362Y226642D01*
X246411Y226679D01*
X246648Y226648D01*
X247630Y225894D01*
X248773Y225421D01*
X250000Y225259D01*
X251227Y225421D01*
X252370Y225894D01*
X253352Y226648D01*
X254105Y227630D01*
X254579Y228773D01*
X254741Y230000D01*
X254579Y231227D01*
X254105Y232370D01*
X253352Y233352D01*
X252370Y234105D01*
X251227Y234579D01*
X250000Y234741D01*
D02*
G37*
G36*
X195000Y279741D02*
X193773Y279579D01*
X192630Y279105D01*
X191648Y278352D01*
X190895Y277370D01*
X190421Y276227D01*
X190303Y275328D01*
X190302D01*
X190259Y275000D01*
X190302Y274672D01*
X190303D01*
X190421Y273773D01*
X190895Y272630D01*
X191648Y271648D01*
X192277Y271165D01*
Y255000D01*
X192369Y254295D01*
X192642Y253638D01*
X193074Y253074D01*
X205363Y240786D01*
X205259Y240000D01*
X205421Y238773D01*
X205894Y237630D01*
X206648Y236648D01*
X207630Y235894D01*
X208773Y235421D01*
X210000Y235259D01*
X211227Y235421D01*
X212370Y235894D01*
X213352Y236648D01*
X214106Y237630D01*
X214579Y238773D01*
X214741Y240000D01*
X214579Y241227D01*
X214106Y242370D01*
X213352Y243352D01*
X212370Y244106D01*
X211227Y244579D01*
X210000Y244741D01*
X209214Y244637D01*
X197723Y256128D01*
Y271165D01*
X198352Y271648D01*
X199105Y272630D01*
X199579Y273773D01*
X199741Y275000D01*
X199579Y276227D01*
X199105Y277370D01*
X198352Y278352D01*
X197370Y279105D01*
X196227Y279579D01*
X195000Y279741D01*
D02*
G37*
G36*
X276326Y194736D02*
X275873Y194676D01*
X274705Y194193D01*
X273703Y193423D01*
X272933Y192421D01*
X272449Y191253D01*
X272390Y190800D01*
X276326D01*
Y194736D01*
D02*
G37*
G36*
X331200D02*
X330747Y194676D01*
X329579Y194193D01*
X328577Y193423D01*
X327807Y192421D01*
X327324Y191253D01*
X327264Y190800D01*
X331200D01*
Y194736D01*
D02*
G37*
G36*
X350000Y233741D02*
X348773Y233579D01*
X347630Y233105D01*
X346648Y232352D01*
X345895Y231370D01*
X345421Y230227D01*
X345259Y229000D01*
X345421Y227773D01*
X345895Y226630D01*
X346648Y225648D01*
X347630Y224894D01*
X347921Y224774D01*
X348074Y224574D01*
X348638Y224142D01*
X349295Y223869D01*
X350000Y223777D01*
X351372D01*
X359277Y215872D01*
Y198000D01*
X359369Y197295D01*
X359642Y196638D01*
X360074Y196074D01*
X363074Y193074D01*
X363638Y192642D01*
X364295Y192369D01*
X365000Y192277D01*
X366165D01*
X366648Y191648D01*
X367630Y190895D01*
X368773Y190421D01*
X370000Y190259D01*
X371227Y190421D01*
X372370Y190895D01*
X373352Y191648D01*
X373835Y192277D01*
X381165D01*
X381648Y191648D01*
X382630Y190895D01*
X383773Y190421D01*
X385000Y190259D01*
X386227Y190421D01*
X387370Y190895D01*
X388352Y191648D01*
X389106Y192630D01*
X389579Y193773D01*
X389741Y195000D01*
X389579Y196227D01*
X389106Y197370D01*
X388352Y198352D01*
X387370Y199105D01*
X386227Y199579D01*
X385000Y199741D01*
X383773Y199579D01*
X382630Y199105D01*
X381648Y198352D01*
X381165Y197723D01*
X373835D01*
X373352Y198352D01*
X372370Y199105D01*
X371227Y199579D01*
X370000Y199741D01*
X368773Y199579D01*
X367630Y199105D01*
X366648Y198352D01*
X366456Y198102D01*
X365793Y198059D01*
X364723Y199128D01*
Y217000D01*
X364631Y217705D01*
X364358Y218362D01*
X363926Y218926D01*
X354637Y228214D01*
X354741Y229000D01*
X354579Y230227D01*
X354105Y231370D01*
X353352Y232352D01*
X352370Y233105D01*
X351227Y233579D01*
X350000Y233741D01*
D02*
G37*
G36*
X189736Y194200D02*
X185800D01*
Y190264D01*
X186253Y190324D01*
X187421Y190807D01*
X188423Y191577D01*
X189193Y192579D01*
X189676Y193747D01*
X189736Y194200D01*
D02*
G37*
G36*
X339874Y194741D02*
X338647Y194579D01*
X337504Y194105D01*
X336522Y193352D01*
X336250Y192998D01*
X335750D01*
X335423Y193423D01*
X334421Y194193D01*
X333253Y194676D01*
X332800Y194736D01*
Y190000D01*
Y185264D01*
X333253Y185324D01*
X334421Y185807D01*
X335423Y186577D01*
X335750Y187002D01*
X336250D01*
X336522Y186648D01*
X337277Y186069D01*
Y168835D01*
X336648Y168352D01*
X335894Y167370D01*
X335421Y166227D01*
X335300Y165308D01*
X335300Y165308D01*
X335259Y165000D01*
X335300Y164692D01*
X335300Y164692D01*
X335421Y163773D01*
X335894Y162630D01*
X336648Y161648D01*
X337277Y161165D01*
Y142128D01*
X334872Y139723D01*
X325128D01*
X322723Y142128D01*
Y145365D01*
X323352Y145848D01*
X324106Y146830D01*
X324579Y147973D01*
X324700Y148892D01*
X325200Y148859D01*
Y144400D01*
X329200D01*
Y150000D01*
Y155600D01*
X325200D01*
Y151141D01*
X324700Y151108D01*
X324579Y152027D01*
X324106Y153170D01*
X323352Y154152D01*
X322370Y154905D01*
X321227Y155379D01*
X320000Y155541D01*
X318773Y155379D01*
X317630Y154905D01*
X316648Y154152D01*
X315895Y153170D01*
X315421Y152027D01*
X315259Y150800D01*
Y149200D01*
X315421Y147973D01*
X315895Y146830D01*
X316648Y145848D01*
X317277Y145365D01*
Y141000D01*
X317370Y140295D01*
X317642Y139638D01*
X318074Y139074D01*
X322074Y135074D01*
X322638Y134642D01*
X322910Y134529D01*
X323295Y134370D01*
X324000Y134277D01*
X336000D01*
X336705Y134370D01*
X337362Y134642D01*
X337926Y135074D01*
X341926Y139074D01*
X342358Y139638D01*
X342471Y139910D01*
X342631Y140295D01*
X342723Y141000D01*
Y142277D01*
X354490D01*
X354950Y141415D01*
X355752Y140437D01*
X356730Y139635D01*
X357846Y139039D01*
X359056Y138672D01*
X360315Y138548D01*
X361574Y138672D01*
X362784Y139039D01*
X363900Y139635D01*
X364877Y140437D01*
X365680Y141415D01*
X366276Y142531D01*
X366643Y143741D01*
X366767Y145000D01*
X366643Y146259D01*
X366276Y147469D01*
X365680Y148585D01*
X364877Y149563D01*
X363900Y150365D01*
X362784Y150961D01*
X361574Y151328D01*
X360315Y151452D01*
X359056Y151328D01*
X357846Y150961D01*
X356730Y150365D01*
X355752Y149563D01*
X354950Y148585D01*
X354490Y147723D01*
X342723D01*
Y161165D01*
X343352Y161648D01*
X344106Y162630D01*
X344579Y163773D01*
X344741Y165000D01*
X344579Y166227D01*
X344106Y167370D01*
X343352Y168352D01*
X342723Y168835D01*
Y186262D01*
X343226Y186648D01*
X343979Y187630D01*
X344453Y188773D01*
X344615Y190000D01*
X344453Y191227D01*
X343979Y192370D01*
X343226Y193352D01*
X342244Y194105D01*
X341101Y194579D01*
X339874Y194741D01*
D02*
G37*
G36*
X505000Y239741D02*
X504672Y239698D01*
Y239697D01*
X503773Y239579D01*
X502630Y239106D01*
X501648Y238352D01*
X500894Y237370D01*
X500421Y236227D01*
X500259Y235000D01*
X500421Y233773D01*
X500894Y232630D01*
X501648Y231648D01*
X502630Y230894D01*
X503773Y230421D01*
X505000Y230259D01*
X506227Y230421D01*
X507370Y230894D01*
X508352Y231648D01*
X508835Y232277D01*
X516165D01*
X516648Y231648D01*
X517277Y231165D01*
Y216128D01*
X509207Y208059D01*
X508544Y208102D01*
X508352Y208352D01*
X507370Y209105D01*
X506227Y209579D01*
X505000Y209741D01*
X503773Y209579D01*
X502630Y209105D01*
X501648Y208352D01*
X500894Y207370D01*
X500421Y206227D01*
X500259Y205000D01*
X500421Y203773D01*
X500894Y202630D01*
X501648Y201648D01*
X502630Y200895D01*
X503773Y200421D01*
X505000Y200259D01*
X506227Y200421D01*
X507370Y200895D01*
X508352Y201648D01*
X508835Y202277D01*
X510000D01*
X510705Y202369D01*
X511362Y202642D01*
X511926Y203074D01*
X521926Y213074D01*
X522358Y213638D01*
X522631Y214295D01*
X522723Y215000D01*
Y231165D01*
X523352Y231648D01*
X524106Y232630D01*
X524579Y233773D01*
X524741Y235000D01*
X524579Y236227D01*
X524106Y237370D01*
X523352Y238352D01*
X522370Y239106D01*
X521227Y239579D01*
X520000Y239741D01*
X518773Y239579D01*
X517630Y239106D01*
X516648Y238352D01*
X516165Y237723D01*
X508835D01*
X508352Y238352D01*
X507370Y239106D01*
X506227Y239579D01*
X505328Y239697D01*
Y239698D01*
X505000Y239741D01*
D02*
G37*
G36*
X370000Y233741D02*
X368773Y233579D01*
X367630Y233105D01*
X366648Y232352D01*
X365895Y231370D01*
X365421Y230227D01*
X365259Y229000D01*
X365421Y227773D01*
X365895Y226630D01*
X366648Y225648D01*
X367630Y224894D01*
X368773Y224421D01*
X370000Y224259D01*
X371227Y224421D01*
X371581Y224568D01*
X380363Y215786D01*
X380259Y215000D01*
X380421Y213773D01*
X380894Y212630D01*
X381648Y211648D01*
X382630Y210894D01*
X383773Y210421D01*
X385000Y210259D01*
X386227Y210421D01*
X387370Y210894D01*
X388352Y211648D01*
X389106Y212630D01*
X389579Y213773D01*
X389741Y215000D01*
X389579Y216227D01*
X389106Y217370D01*
X388352Y218352D01*
X387370Y219106D01*
X386227Y219579D01*
X385000Y219741D01*
X384214Y219637D01*
X374724Y229128D01*
X374579Y230227D01*
X374106Y231370D01*
X373352Y232352D01*
X372370Y233105D01*
X371227Y233579D01*
X370000Y233741D01*
D02*
G37*
G36*
X185800Y199736D02*
Y195800D01*
X189736D01*
X189676Y196253D01*
X189193Y197421D01*
X188423Y198423D01*
X187421Y199193D01*
X186253Y199676D01*
X185800Y199736D01*
D02*
G37*
G36*
X209000Y221741D02*
X207773Y221579D01*
X206630Y221106D01*
X205648Y220352D01*
X204894Y219370D01*
X204421Y218227D01*
X204259Y217000D01*
X204421Y215773D01*
X204894Y214630D01*
X205648Y213648D01*
X206277Y213165D01*
Y210128D01*
X195872Y199723D01*
X195131D01*
X195000Y199741D01*
X193773Y199579D01*
X192630Y199105D01*
X191648Y198352D01*
X190895Y197370D01*
X190421Y196227D01*
X190303Y195328D01*
X190302D01*
X190259Y195000D01*
X190302Y194672D01*
X190303D01*
X190421Y193773D01*
X190895Y192630D01*
X191648Y191648D01*
X192630Y190895D01*
X193773Y190421D01*
X195000Y190259D01*
X196227Y190421D01*
X197370Y190895D01*
X198352Y191648D01*
X199105Y192630D01*
X199579Y193773D01*
X199741Y195000D01*
X199637Y195786D01*
X210926Y207074D01*
X211358Y207638D01*
X211631Y208295D01*
X211641Y208377D01*
X211723Y209000D01*
Y213165D01*
X212352Y213648D01*
X213106Y214630D01*
X213579Y215773D01*
X213741Y217000D01*
X213579Y218227D01*
X213106Y219370D01*
X212352Y220352D01*
X211370Y221106D01*
X210227Y221579D01*
X209000Y221741D01*
D02*
G37*
G36*
X475247Y189491D02*
X474753D01*
X473590Y189338D01*
X472507Y188890D01*
X471577Y188176D01*
X470863Y187246D01*
X470415Y186162D01*
X470262Y185000D01*
X470415Y183838D01*
X470863Y182754D01*
X471577Y181824D01*
X472507Y181111D01*
X473590Y180662D01*
X474753Y180509D01*
X475247D01*
X475594Y180554D01*
X477277Y178872D01*
Y164901D01*
X476824Y164554D01*
X476111Y163623D01*
X475662Y162540D01*
X475509Y161378D01*
Y158622D01*
X475662Y157460D01*
X476111Y156377D01*
X476824Y155446D01*
X477754Y154733D01*
X478838Y154284D01*
X480000Y154131D01*
X481162Y154284D01*
X482246Y154733D01*
X483176Y155446D01*
X483889Y156377D01*
X484338Y157460D01*
X484491Y158622D01*
Y161378D01*
X484338Y162540D01*
X483889Y163623D01*
X483176Y164554D01*
X482723Y164901D01*
Y180000D01*
X482630Y180705D01*
X482358Y181362D01*
X481926Y181926D01*
X479635Y184216D01*
X479738Y185000D01*
X479585Y186162D01*
X479137Y187246D01*
X478423Y188176D01*
X477493Y188890D01*
X476410Y189338D01*
X475247Y189491D01*
D02*
G37*
G36*
X509700Y189700D02*
X500300D01*
Y184151D01*
X498074Y181926D01*
X497642Y181362D01*
X497369Y180705D01*
X497277Y180000D01*
Y164901D01*
X496824Y164554D01*
X496110Y163623D01*
X495662Y162540D01*
X495509Y161378D01*
Y158622D01*
X495662Y157460D01*
X496110Y156377D01*
X496824Y155446D01*
X497754Y154733D01*
X498838Y154284D01*
X500000Y154131D01*
X501162Y154284D01*
X502246Y154733D01*
X503176Y155446D01*
X503890Y156377D01*
X504338Y157460D01*
X504491Y158622D01*
Y161378D01*
X504338Y162540D01*
X503890Y163623D01*
X503176Y164554D01*
X502723Y164901D01*
Y178872D01*
X504151Y180300D01*
X509700D01*
Y189700D01*
D02*
G37*
G36*
X380800Y151474D02*
Y145800D01*
X386474D01*
X386427Y146278D01*
X386054Y147508D01*
X385449Y148641D01*
X384633Y149634D01*
X383641Y150449D01*
X382508Y151054D01*
X381278Y151427D01*
X380800Y151474D01*
D02*
G37*
G36*
X334800Y155600D02*
X330800D01*
Y150800D01*
X334800D01*
Y155600D01*
D02*
G37*
G36*
X459200Y159200D02*
X455200D01*
Y155200D01*
X459200D01*
Y159200D01*
D02*
G37*
G36*
X194800Y164200D02*
X190800D01*
Y160200D01*
X194800D01*
Y164200D01*
D02*
G37*
G36*
X254200D02*
X250200D01*
Y160200D01*
X254200D01*
Y164200D01*
D02*
G37*
G36*
X464800Y159200D02*
X460800D01*
Y155200D01*
X464800D01*
Y159200D01*
D02*
G37*
G36*
X189200Y164200D02*
X185200D01*
Y160200D01*
X189200D01*
Y164200D01*
D02*
G37*
G36*
X550736Y135200D02*
X546800D01*
Y131264D01*
X547253Y131324D01*
X548421Y131807D01*
X549423Y132577D01*
X550193Y133579D01*
X550676Y134747D01*
X550736Y135200D01*
D02*
G37*
G36*
X545200Y140736D02*
X544747Y140676D01*
X543579Y140193D01*
X542577Y139423D01*
X541807Y138421D01*
X541324Y137253D01*
X541264Y136800D01*
X545200D01*
Y140736D01*
D02*
G37*
G36*
X685000Y146536D02*
X683195Y146394D01*
X681435Y145971D01*
X679763Y145278D01*
X678220Y144333D01*
X676843Y143157D01*
X675667Y141780D01*
X674722Y140237D01*
X674029Y138565D01*
X673606Y136805D01*
X673464Y135000D01*
X673606Y133195D01*
X674029Y131435D01*
X674722Y129763D01*
X675667Y128220D01*
X676843Y126843D01*
X678220Y125668D01*
X679763Y124722D01*
X681435Y124029D01*
X683195Y123607D01*
X685000Y123464D01*
X686805Y123607D01*
X688565Y124029D01*
X690237Y124722D01*
X691780Y125668D01*
X693157Y126843D01*
X694333Y128220D01*
X695278Y129763D01*
X695971Y131435D01*
X696393Y133195D01*
X696536Y135000D01*
X696393Y136805D01*
X695971Y138565D01*
X695278Y140237D01*
X694333Y141780D01*
X693157Y143157D01*
X691780Y144333D01*
X690237Y145278D01*
X688565Y145971D01*
X686805Y146394D01*
X685000Y146536D01*
D02*
G37*
G36*
X545200Y135200D02*
X541264D01*
X541324Y134747D01*
X541807Y133579D01*
X542577Y132577D01*
X543579Y131807D01*
X544747Y131324D01*
X545200Y131264D01*
Y135200D01*
D02*
G37*
G36*
X546800Y140736D02*
Y136800D01*
X550736D01*
X550676Y137253D01*
X550193Y138421D01*
X549423Y139423D01*
X548421Y140193D01*
X547253Y140676D01*
X546800Y140736D01*
D02*
G37*
G36*
X334800Y149200D02*
X330800D01*
Y144400D01*
X334800D01*
Y149200D01*
D02*
G37*
G36*
X379200Y151474D02*
X378722Y151427D01*
X377492Y151054D01*
X376360Y150449D01*
X375366Y149634D01*
X374552Y148641D01*
X373946Y147508D01*
X373573Y146278D01*
X373526Y145800D01*
X379200D01*
Y151474D01*
D02*
G37*
G36*
Y144200D02*
X373526D01*
X373573Y143722D01*
X373946Y142492D01*
X374552Y141359D01*
X375366Y140366D01*
X376360Y139551D01*
X377492Y138946D01*
X378722Y138573D01*
X379200Y138526D01*
Y144200D01*
D02*
G37*
G36*
X386474D02*
X380800D01*
Y138526D01*
X381278Y138573D01*
X382508Y138946D01*
X383641Y139551D01*
X384633Y140366D01*
X385449Y141359D01*
X386054Y142492D01*
X386427Y143722D01*
X386474Y144200D01*
D02*
G37*
G36*
X259800Y164200D02*
X255800D01*
Y160200D01*
X259800D01*
Y164200D01*
D02*
G37*
G36*
X194800Y169800D02*
X190800D01*
Y165800D01*
X194800D01*
Y169800D01*
D02*
G37*
G36*
X254200D02*
X250200D01*
Y165800D01*
X254200D01*
Y169800D01*
D02*
G37*
G36*
X374800Y169200D02*
X370800D01*
Y165200D01*
X374800D01*
Y169200D01*
D02*
G37*
G36*
X189200Y169800D02*
X185200D01*
Y165800D01*
X189200D01*
Y169800D01*
D02*
G37*
G36*
X259800D02*
X255800D01*
Y165800D01*
X259800D01*
Y169800D01*
D02*
G37*
G36*
X308200D02*
X304200D01*
Y165800D01*
X308200D01*
Y169800D01*
D02*
G37*
G36*
X313800D02*
X309800D01*
Y165800D01*
X313800D01*
Y169800D01*
D02*
G37*
G36*
X274200D02*
X270200D01*
Y165800D01*
X274200D01*
Y169800D01*
D02*
G37*
G36*
X279800D02*
X275800D01*
Y165800D01*
X279800D01*
Y169800D01*
D02*
G37*
G36*
X308200Y164200D02*
X304200D01*
Y160200D01*
X308200D01*
Y164200D01*
D02*
G37*
G36*
X313800D02*
X309800D01*
Y160200D01*
X313800D01*
Y164200D01*
D02*
G37*
G36*
X274200D02*
X270200D01*
Y160200D01*
X274200D01*
Y164200D01*
D02*
G37*
G36*
X279800D02*
X275800D01*
Y160200D01*
X279800D01*
Y164200D01*
D02*
G37*
G36*
X329200D02*
X325200D01*
Y160200D01*
X329200D01*
Y164200D01*
D02*
G37*
G36*
X464800Y164800D02*
X460800D01*
Y160800D01*
X464800D01*
Y164800D01*
D02*
G37*
G36*
X369200Y169200D02*
X365200D01*
Y165200D01*
X369200D01*
Y169200D01*
D02*
G37*
G36*
X334800Y164200D02*
X330800D01*
Y160200D01*
X334800D01*
Y164200D01*
D02*
G37*
G36*
X459200Y164800D02*
X455200D01*
Y160800D01*
X459200D01*
Y164800D01*
D02*
G37*
G36*
X494750Y244200D02*
X490800D01*
Y240250D01*
X494750D01*
Y244200D01*
D02*
G37*
G36*
X285000Y342723D02*
X213000D01*
X212295Y342631D01*
X211638Y342358D01*
X211074Y341926D01*
X203074Y333926D01*
X202642Y333362D01*
X202369Y332705D01*
X202277Y332000D01*
Y270000D01*
X202369Y269295D01*
X202642Y268638D01*
X203074Y268074D01*
X223074Y248074D01*
X223638Y247642D01*
X224295Y247370D01*
X225000Y247277D01*
X246165D01*
X246648Y246648D01*
X247630Y245895D01*
X248773Y245421D01*
X250000Y245259D01*
X251227Y245421D01*
X252370Y245895D01*
X253352Y246648D01*
X254105Y247630D01*
X254579Y248773D01*
X254741Y250000D01*
X254579Y251227D01*
X254105Y252370D01*
X253352Y253352D01*
X252370Y254105D01*
X251227Y254579D01*
X250000Y254741D01*
X248773Y254579D01*
X247630Y254105D01*
X246648Y253352D01*
X246165Y252723D01*
X226128D01*
X207723Y271128D01*
Y330872D01*
X209638Y332787D01*
X210100Y332595D01*
Y325100D01*
X212277D01*
Y275000D01*
X212369Y274295D01*
X212642Y273638D01*
X213074Y273074D01*
X228074Y258074D01*
X228638Y257642D01*
X229295Y257369D01*
X229377Y257359D01*
X230000Y257277D01*
X246165D01*
X246648Y256648D01*
X247630Y255894D01*
X248773Y255421D01*
X250000Y255259D01*
X251227Y255421D01*
X252370Y255894D01*
X253352Y256648D01*
X254105Y257630D01*
X254579Y258773D01*
X254741Y260000D01*
X254579Y261227D01*
X254105Y262370D01*
X253352Y263352D01*
X252370Y264106D01*
X251227Y264579D01*
X250000Y264741D01*
X248773Y264579D01*
X247630Y264106D01*
X246648Y263352D01*
X246165Y262723D01*
X231128D01*
X217723Y276128D01*
Y325100D01*
X219900D01*
Y334900D01*
X212405D01*
X212213Y335362D01*
X214128Y337277D01*
X283872D01*
X290185Y330964D01*
X290058Y330000D01*
X290226Y328721D01*
X290720Y327529D01*
X291505Y326505D01*
X292277Y325913D01*
Y310000D01*
X292370Y309295D01*
X292642Y308638D01*
X293074Y308074D01*
X303074Y298074D01*
X303638Y297642D01*
X304295Y297370D01*
X305000Y297277D01*
X315787D01*
X316434Y296434D01*
X317478Y295633D01*
X318352Y295271D01*
Y294729D01*
X317478Y294368D01*
X316434Y293566D01*
X315787Y292723D01*
X298835D01*
X298352Y293352D01*
X297370Y294106D01*
X296227Y294579D01*
X295000Y294741D01*
X293773Y294579D01*
X292630Y294106D01*
X291648Y293352D01*
X291165Y292723D01*
X271000D01*
X270295Y292631D01*
X269638Y292358D01*
X269074Y291926D01*
X259872Y282723D01*
X254700D01*
Y284700D01*
X245300D01*
Y275300D01*
X254700D01*
Y277277D01*
X258277D01*
Y211128D01*
X244872Y197723D01*
X225000D01*
X224295Y197631D01*
X223638Y197358D01*
X223074Y196926D01*
X198074Y171926D01*
X197642Y171362D01*
X197370Y170705D01*
X197277Y170000D01*
Y168835D01*
X196648Y168352D01*
X195895Y167370D01*
X195421Y166227D01*
X195300Y165308D01*
X195300Y165308D01*
X195259Y165000D01*
X195300Y164692D01*
X195300Y164692D01*
X195421Y163773D01*
X195895Y162630D01*
X196648Y161648D01*
X197277Y161165D01*
Y154635D01*
X196648Y154152D01*
X195895Y153170D01*
X195421Y152027D01*
X195259Y150800D01*
Y149200D01*
X195421Y147973D01*
X195895Y146830D01*
X196648Y145848D01*
X197630Y145095D01*
X198773Y144621D01*
X200000Y144459D01*
X201227Y144621D01*
X202370Y145095D01*
X203352Y145848D01*
X204105Y146830D01*
X204579Y147973D01*
X204697Y148872D01*
X205202D01*
X205324Y147947D01*
X205807Y146779D01*
X206577Y145777D01*
X207579Y145007D01*
X208747Y144524D01*
X209200Y144464D01*
Y150000D01*
Y155536D01*
X208747Y155476D01*
X207579Y154993D01*
X206577Y154223D01*
X205807Y153221D01*
X205324Y152053D01*
X205202Y151128D01*
X204697D01*
X204579Y152027D01*
X204105Y153170D01*
X203352Y154152D01*
X202723Y154635D01*
Y161165D01*
X203352Y161648D01*
X204105Y162630D01*
X204579Y163773D01*
X204741Y165000D01*
X204579Y166227D01*
X204105Y167370D01*
X203352Y168352D01*
X203102Y168544D01*
X203059Y169207D01*
X226128Y192277D01*
X246000D01*
X246705Y192369D01*
X247362Y192642D01*
X247926Y193074D01*
X262926Y208074D01*
X263358Y208638D01*
X263631Y209295D01*
X263641Y209377D01*
X263723Y210000D01*
Y278872D01*
X272128Y287277D01*
X291165D01*
X291648Y286648D01*
X292630Y285894D01*
X293773Y285421D01*
X294692Y285300D01*
X294692Y285300D01*
X295000Y285259D01*
X295308Y285300D01*
X295308Y285300D01*
X296227Y285421D01*
X297370Y285894D01*
X298352Y286648D01*
X298835Y287277D01*
X315787D01*
X316434Y286434D01*
X317478Y285632D01*
X318221Y285325D01*
Y284784D01*
X317428Y284455D01*
X316363Y283637D01*
X315545Y282572D01*
X315031Y281331D01*
X314961Y280800D01*
X325039D01*
X324969Y281331D01*
X324455Y282572D01*
X323637Y283637D01*
X322572Y284455D01*
X321778Y284784D01*
Y285325D01*
X322522Y285632D01*
X323566Y286434D01*
X324213Y287277D01*
X331000D01*
X331584Y287354D01*
X331705Y287369D01*
X331705Y287369D01*
X331705D01*
X331996Y287490D01*
X332362Y287642D01*
X332362Y287642D01*
X332384Y287659D01*
X332926Y288074D01*
X337129Y292278D01*
X367387Y292277D01*
X367869Y291649D01*
X368851Y290895D01*
X369994Y290422D01*
X371221Y290260D01*
X372448Y290422D01*
X373591Y290895D01*
X374573Y291649D01*
X375327Y292630D01*
X375800Y293774D01*
X375962Y295001D01*
X375800Y296228D01*
X375327Y297371D01*
X374573Y298353D01*
X373591Y299106D01*
X372448Y299580D01*
X371221Y299741D01*
X369994Y299580D01*
X368851Y299106D01*
X367869Y298353D01*
X367387Y297724D01*
X336002Y297725D01*
X336001D01*
X335297Y297632D01*
X334640Y297360D01*
X334076Y296927D01*
X329872Y292723D01*
X324213D01*
X323566Y293566D01*
X322522Y294368D01*
X321648Y294729D01*
Y295271D01*
X322522Y295633D01*
X323566Y296434D01*
X324367Y297478D01*
X324871Y298695D01*
X325043Y300000D01*
X324871Y301305D01*
X324367Y302522D01*
X323566Y303566D01*
X322522Y304367D01*
X321305Y304871D01*
X320000Y305043D01*
X318695Y304871D01*
X317478Y304367D01*
X316434Y303566D01*
X315787Y302723D01*
X306128D01*
X297723Y311128D01*
Y325913D01*
X298495Y326505D01*
X299087Y327277D01*
X320100D01*
Y325100D01*
X329900D01*
Y334900D01*
X320100D01*
Y332723D01*
X299087D01*
X298495Y333495D01*
X297471Y334280D01*
X296279Y334774D01*
X295000Y334942D01*
X294036Y334815D01*
X286926Y341926D01*
X286362Y342358D01*
X285705Y342631D01*
X285000Y342723D01*
D02*
G37*
G36*
X416877Y336523D02*
X410119D01*
X410187Y335833D01*
X410622Y334400D01*
X411328Y333080D01*
X412277Y331923D01*
X413434Y330973D01*
X414755Y330267D01*
X416187Y329833D01*
X416877Y329765D01*
Y336523D01*
D02*
G37*
G36*
X443123Y320235D02*
Y313477D01*
X449881D01*
X449813Y314167D01*
X449378Y315600D01*
X448672Y316920D01*
X447723Y318077D01*
X446566Y319027D01*
X445245Y319733D01*
X443813Y320167D01*
X443123Y320235D01*
D02*
G37*
G36*
X240000Y334942D02*
X238721Y334774D01*
X237529Y334280D01*
X236505Y333495D01*
X235720Y332471D01*
X235226Y331279D01*
X235058Y330000D01*
X235226Y328721D01*
X235415Y328266D01*
X233074Y325926D01*
X232642Y325362D01*
X232369Y324705D01*
X232277Y324000D01*
Y275000D01*
X232369Y274295D01*
X232642Y273638D01*
X233074Y273074D01*
X238074Y268074D01*
X238638Y267642D01*
X239295Y267370D01*
X240000Y267277D01*
X246165D01*
X246648Y266648D01*
X247630Y265895D01*
X248773Y265421D01*
X250000Y265259D01*
X251227Y265421D01*
X252370Y265895D01*
X253352Y266648D01*
X254105Y267630D01*
X254579Y268773D01*
X254741Y270000D01*
X254579Y271227D01*
X254105Y272370D01*
X253352Y273352D01*
X252370Y274106D01*
X251227Y274579D01*
X250000Y274741D01*
X248773Y274579D01*
X247630Y274106D01*
X246648Y273352D01*
X246165Y272723D01*
X241128D01*
X237723Y276128D01*
Y322872D01*
X239920Y325068D01*
X240000Y325058D01*
X241279Y325226D01*
X242471Y325720D01*
X243495Y326505D01*
X244087Y327277D01*
X265100D01*
Y325100D01*
X274900D01*
Y334900D01*
X265100D01*
Y332723D01*
X244087D01*
X243495Y333495D01*
X242471Y334280D01*
X241279Y334774D01*
X240000Y334942D01*
D02*
G37*
G36*
X425235Y336523D02*
X418477D01*
Y329765D01*
X419167Y329833D01*
X420600Y330267D01*
X421920Y330973D01*
X423077Y331923D01*
X424027Y333080D01*
X424733Y334400D01*
X425167Y335833D01*
X425235Y336523D01*
D02*
G37*
G36*
X416877Y344881D02*
X416187Y344813D01*
X414755Y344378D01*
X413434Y343672D01*
X412277Y342723D01*
X411328Y341566D01*
X410622Y340245D01*
X410187Y338813D01*
X410119Y338123D01*
X416877D01*
Y344881D01*
D02*
G37*
G36*
X418477D02*
Y338123D01*
X425235D01*
X425167Y338813D01*
X424733Y340245D01*
X424027Y341566D01*
X423077Y342723D01*
X421920Y343672D01*
X420600Y344378D01*
X419167Y344813D01*
X418477Y344881D01*
D02*
G37*
G36*
X441523Y336523D02*
X434765D01*
X434833Y335833D01*
X435267Y334400D01*
X435973Y333080D01*
X436923Y331923D01*
X438080Y330973D01*
X439400Y330267D01*
X440833Y329833D01*
X441523Y329765D01*
Y336523D01*
D02*
G37*
G36*
X449881D02*
X443123D01*
Y329765D01*
X443813Y329833D01*
X445245Y330267D01*
X446566Y330973D01*
X447723Y331923D01*
X448672Y333080D01*
X449378Y334400D01*
X449813Y335833D01*
X449881Y336523D01*
D02*
G37*
G36*
X441523Y311877D02*
X434765D01*
X434833Y311187D01*
X435267Y309755D01*
X435973Y308434D01*
X436923Y307277D01*
X438080Y306328D01*
X439400Y305622D01*
X440833Y305187D01*
X441523Y305119D01*
Y311877D01*
D02*
G37*
G36*
X449881D02*
X443123D01*
Y305119D01*
X443813Y305187D01*
X445245Y305622D01*
X446566Y306328D01*
X447723Y307277D01*
X448672Y308434D01*
X449378Y309755D01*
X449813Y311187D01*
X449881Y311877D01*
D02*
G37*
G36*
X254000Y321536D02*
X252195Y321393D01*
X250435Y320971D01*
X248763Y320278D01*
X247220Y319333D01*
X245843Y318157D01*
X244668Y316780D01*
X243722Y315237D01*
X243029Y313565D01*
X242606Y311805D01*
X242464Y310000D01*
X242606Y308195D01*
X243029Y306435D01*
X243722Y304763D01*
X244668Y303220D01*
X245843Y301843D01*
X247220Y300668D01*
X248763Y299722D01*
X250435Y299029D01*
X252195Y298606D01*
X254000Y298464D01*
X255805Y298606D01*
X257565Y299029D01*
X259237Y299722D01*
X260780Y300668D01*
X262157Y301843D01*
X263333Y303220D01*
X264278Y304763D01*
X264971Y306435D01*
X265393Y308195D01*
X265536Y310000D01*
X265393Y311805D01*
X264971Y313565D01*
X264278Y315237D01*
X263333Y316780D01*
X262157Y318157D01*
X260780Y319333D01*
X259237Y320278D01*
X257565Y320971D01*
X255805Y321393D01*
X254000Y321536D01*
D02*
G37*
G36*
X537500Y357568D02*
X536030Y357423D01*
X534616Y356994D01*
X533313Y356298D01*
X532171Y355361D01*
X531234Y354219D01*
X530537Y352916D01*
X530108Y351502D01*
X529964Y350032D01*
X530108Y348561D01*
X530537Y347148D01*
X530969Y346341D01*
Y341500D01*
X531094Y340226D01*
X531466Y339001D01*
X532069Y337871D01*
X532882Y336882D01*
X549382Y320382D01*
X550371Y319569D01*
X551501Y318966D01*
X552726Y318594D01*
X554000Y318469D01*
X598263D01*
X599002Y315903D01*
X600184Y313049D01*
X601678Y310346D01*
X603466Y307827D01*
X605524Y305524D01*
X607827Y303466D01*
X610346Y301678D01*
X613049Y300184D01*
X615903Y299002D01*
X618871Y298147D01*
X621916Y297630D01*
X625000Y297457D01*
X628084Y297630D01*
X631129Y298147D01*
X634097Y299002D01*
X636951Y300184D01*
X639654Y301678D01*
X642173Y303466D01*
X644476Y305524D01*
X646534Y307827D01*
X648322Y310346D01*
X649816Y313049D01*
X650998Y315903D01*
X651737Y318469D01*
X660385D01*
X665482Y313372D01*
X665454Y313091D01*
X665637Y311228D01*
X666181Y309437D01*
X667063Y307787D01*
X668250Y306341D01*
X669697Y305153D01*
X671347Y304271D01*
X673138Y303728D01*
X675000Y303545D01*
X676862Y303728D01*
X678653Y304271D01*
X680303Y305153D01*
X681750Y306341D01*
X682937Y307787D01*
X683819Y309437D01*
X684363Y311228D01*
X684546Y313091D01*
X684363Y314953D01*
X683819Y316744D01*
X682937Y318394D01*
X681750Y319841D01*
X680303Y321028D01*
X678653Y321910D01*
X676862Y322453D01*
X675000Y322637D01*
X674719Y322609D01*
X667709Y329618D01*
X666719Y330431D01*
X665590Y331034D01*
X664365Y331406D01*
X663091Y331531D01*
X651737D01*
X650998Y334097D01*
X649816Y336951D01*
X648322Y339654D01*
X646534Y342173D01*
X644476Y344476D01*
X642173Y346534D01*
X639654Y348322D01*
X636951Y349816D01*
X634097Y350998D01*
X631129Y351853D01*
X628084Y352370D01*
X625000Y352543D01*
X621916Y352370D01*
X618871Y351853D01*
X615903Y350998D01*
X613049Y349816D01*
X610346Y348322D01*
X607827Y346534D01*
X605524Y344476D01*
X603466Y342173D01*
X601678Y339654D01*
X600184Y336951D01*
X599002Y334097D01*
X598263Y331531D01*
X556705D01*
X544031Y344205D01*
Y346341D01*
X544463Y347148D01*
X544892Y348561D01*
X545036Y350032D01*
X544892Y351502D01*
X544463Y352916D01*
X543766Y354219D01*
X542829Y355361D01*
X541687Y356298D01*
X540384Y356994D01*
X538970Y357423D01*
X537500Y357568D01*
D02*
G37*
G36*
X416877Y311877D02*
X411124D01*
X411173Y311383D01*
X411550Y310139D01*
X412163Y308993D01*
X412988Y307988D01*
X413993Y307163D01*
X415139Y306550D01*
X416383Y306173D01*
X416877Y306124D01*
Y311877D01*
D02*
G37*
G36*
X418477Y319230D02*
Y313477D01*
X424230D01*
X424182Y313971D01*
X423804Y315215D01*
X423191Y316362D01*
X422367Y317367D01*
X421362Y318191D01*
X420215Y318804D01*
X418971Y319182D01*
X418477Y319230D01*
D02*
G37*
G36*
X441523Y320235D02*
X440833Y320167D01*
X439400Y319733D01*
X438080Y319027D01*
X436923Y318077D01*
X435973Y316920D01*
X435267Y315600D01*
X434833Y314167D01*
X434765Y313477D01*
X441523D01*
Y320235D01*
D02*
G37*
G36*
X424230Y311877D02*
X418477D01*
Y306124D01*
X418971Y306173D01*
X420215Y306550D01*
X421362Y307163D01*
X422367Y307988D01*
X423191Y308993D01*
X423804Y310139D01*
X424182Y311383D01*
X424230Y311877D01*
D02*
G37*
G36*
X416877Y319230D02*
X416383Y319182D01*
X415139Y318804D01*
X413993Y318191D01*
X412988Y317367D01*
X412163Y316362D01*
X411550Y315215D01*
X411173Y313971D01*
X411124Y313477D01*
X416877D01*
Y319230D01*
D02*
G37*
G36*
X441523Y344881D02*
X440833Y344813D01*
X439400Y344378D01*
X438080Y343672D01*
X436923Y342723D01*
X435973Y341566D01*
X435267Y340245D01*
X434833Y338813D01*
X434765Y338123D01*
X441523D01*
Y344881D01*
D02*
G37*
G36*
X329938Y349200D02*
X325800D01*
Y345062D01*
X326305Y345129D01*
X327522Y345633D01*
X328566Y346434D01*
X329367Y347478D01*
X329871Y348695D01*
X329938Y349200D01*
D02*
G37*
G36*
X200000Y381536D02*
X198195Y381394D01*
X196435Y380971D01*
X194763Y380278D01*
X193220Y379332D01*
X191843Y378157D01*
X190667Y376780D01*
X189722Y375237D01*
X189029Y373565D01*
X188607Y371805D01*
X188464Y370000D01*
X188607Y368195D01*
X189029Y366435D01*
X189722Y364763D01*
X190667Y363220D01*
X191843Y361843D01*
X193220Y360667D01*
X194763Y359722D01*
X196435Y359029D01*
X198195Y358607D01*
X200000Y358464D01*
X201805Y358607D01*
X203565Y359029D01*
X205237Y359722D01*
X206780Y360667D01*
X208157Y361843D01*
X209332Y363220D01*
X210278Y364763D01*
X210971Y366435D01*
X211393Y368195D01*
X211536Y370000D01*
X211393Y371805D01*
X210971Y373565D01*
X210278Y375237D01*
X209332Y376780D01*
X208157Y378157D01*
X206780Y379332D01*
X205237Y380278D01*
X203565Y380971D01*
X201805Y381394D01*
X200000Y381536D01*
D02*
G37*
G36*
X299938Y349200D02*
X295800D01*
Y345062D01*
X296305Y345129D01*
X297522Y345633D01*
X298566Y346434D01*
X299367Y347478D01*
X299871Y348695D01*
X299938Y349200D01*
D02*
G37*
G36*
X324200D02*
X320062D01*
X320129Y348695D01*
X320633Y347478D01*
X321434Y346434D01*
X322478Y345633D01*
X323695Y345129D01*
X324200Y345062D01*
Y349200D01*
D02*
G37*
G36*
X310000Y381536D02*
X308195Y381394D01*
X306435Y380971D01*
X304763Y380278D01*
X303220Y379332D01*
X301843Y378157D01*
X300668Y376780D01*
X299722Y375237D01*
X299029Y373565D01*
X298606Y371805D01*
X298464Y370000D01*
X298606Y368195D01*
X299029Y366435D01*
X299722Y364763D01*
X300668Y363220D01*
X301843Y361843D01*
X303220Y360667D01*
X304763Y359722D01*
X306435Y359029D01*
X308195Y358607D01*
X310000Y358464D01*
X311805Y358607D01*
X313565Y359029D01*
X315237Y359722D01*
X316780Y360667D01*
X318157Y361843D01*
X319333Y363220D01*
X320278Y364763D01*
X320971Y366435D01*
X321393Y368195D01*
X321536Y370000D01*
X321393Y371805D01*
X320971Y373565D01*
X320278Y375237D01*
X319333Y376780D01*
X318157Y378157D01*
X316780Y379332D01*
X315237Y380278D01*
X313565Y380971D01*
X311805Y381394D01*
X310000Y381536D01*
D02*
G37*
G36*
X521220Y374740D02*
X519993Y374578D01*
X518850Y374105D01*
X517868Y373352D01*
X517114Y372370D01*
X516641Y371226D01*
X516479Y369999D01*
X516583Y369214D01*
X511952Y364583D01*
X511593Y364115D01*
X511519Y364019D01*
Y364019D01*
X511519Y364019D01*
X511313Y363522D01*
X511247Y363362D01*
Y363362D01*
X511247Y363362D01*
X511221Y363162D01*
X511155Y362657D01*
Y347505D01*
X510528Y347170D01*
X509615Y346421D01*
X508865Y345507D01*
X508308Y344465D01*
X507965Y343334D01*
X507849Y342157D01*
X507965Y340981D01*
X508308Y339850D01*
X508865Y338808D01*
X509615Y337894D01*
X510528Y337144D01*
X510657Y337076D01*
X510730Y336581D01*
X496872Y322723D01*
X494648D01*
X494138Y323388D01*
X493146Y324149D01*
X491990Y324628D01*
X490750Y324791D01*
X489250D01*
X488010Y324628D01*
X486855Y324149D01*
X485862Y323388D01*
X485101Y322395D01*
X484622Y321240D01*
X484459Y320000D01*
X484622Y318760D01*
X485101Y317604D01*
X485862Y316612D01*
X486855Y315851D01*
X488010Y315372D01*
X488324Y315331D01*
Y314826D01*
X488010Y314785D01*
X486855Y314306D01*
X485862Y313545D01*
X485352Y312881D01*
X483971D01*
X477723Y319128D01*
Y340000D01*
X477631Y340705D01*
X477358Y341362D01*
X476926Y341926D01*
X460926Y357926D01*
X460362Y358358D01*
X459705Y358630D01*
X459000Y358723D01*
X401000D01*
X400377Y358641D01*
X400295Y358630D01*
X399638Y358358D01*
X399074Y357926D01*
X350786Y309637D01*
X350000Y309741D01*
X348773Y309579D01*
X347630Y309105D01*
X346648Y308352D01*
X345895Y307370D01*
X345421Y306227D01*
X345259Y305000D01*
X345421Y303773D01*
X345895Y302630D01*
X346648Y301648D01*
X347630Y300894D01*
X348773Y300421D01*
X350000Y300259D01*
X351227Y300421D01*
X352370Y300894D01*
X353352Y301648D01*
X354105Y302630D01*
X354579Y303773D01*
X354741Y305000D01*
X354637Y305786D01*
X402128Y353277D01*
X457872D01*
X472277Y338872D01*
Y318000D01*
X472369Y317295D01*
X472642Y316638D01*
X473074Y316074D01*
X480917Y308232D01*
X481481Y307799D01*
X482138Y307527D01*
X482843Y307434D01*
X485352D01*
X485862Y306770D01*
X486855Y306008D01*
X487977Y305543D01*
X487995Y305502D01*
X487913Y305011D01*
X486804Y304552D01*
X485791Y303774D01*
X485013Y302761D01*
X484525Y301581D01*
X484464Y301115D01*
X495537D01*
X495475Y301581D01*
X494986Y302761D01*
X494209Y303774D01*
X493196Y304552D01*
X492087Y305011D01*
X492005Y305502D01*
X492023Y305543D01*
X493146Y306008D01*
X494138Y306770D01*
X494899Y307762D01*
X495378Y308917D01*
X495541Y310157D01*
X495378Y311397D01*
X494899Y312553D01*
X494138Y313545D01*
X493146Y314306D01*
X491990Y314785D01*
X491676Y314826D01*
Y315331D01*
X491990Y315372D01*
X493146Y315851D01*
X494138Y316612D01*
X494648Y317277D01*
X498000D01*
X498705Y317370D01*
X499362Y317642D01*
X499926Y318074D01*
X515804Y333952D01*
X516236Y334516D01*
X516508Y335173D01*
X516519Y335255D01*
X516601Y335878D01*
Y336810D01*
X517228Y337144D01*
X518141Y337894D01*
X518891Y338808D01*
X519448Y339850D01*
X519791Y340981D01*
X519907Y342157D01*
X519791Y343334D01*
X519448Y344465D01*
X518891Y345507D01*
X518141Y346421D01*
X517228Y347170D01*
X516601Y347505D01*
Y361529D01*
X520434Y365362D01*
X521220Y365259D01*
X522447Y365420D01*
X523590Y365894D01*
X524572Y366647D01*
X525325Y367629D01*
X525799Y368772D01*
X525960Y369999D01*
X525799Y371226D01*
X525325Y372370D01*
X524572Y373352D01*
X523590Y374105D01*
X522447Y374578D01*
X521220Y374740D01*
D02*
G37*
G36*
X407000Y375723D02*
X384000D01*
X383295Y375630D01*
X382910Y375471D01*
X382638Y375358D01*
X382074Y374926D01*
X378074Y370926D01*
X377642Y370362D01*
X377378Y369725D01*
X376612Y369138D01*
X375851Y368145D01*
X375676Y367723D01*
X370915D01*
X370431Y368629D01*
X369618Y369618D01*
X368629Y370431D01*
X367499Y371034D01*
X366274Y371406D01*
X365000Y371531D01*
X363726Y371406D01*
X362501Y371034D01*
X361371Y370431D01*
X360382Y369618D01*
X359569Y368629D01*
X358966Y367499D01*
X358594Y366274D01*
X358469Y365000D01*
X358594Y363726D01*
X358966Y362501D01*
X359569Y361371D01*
X360382Y360382D01*
X361371Y359569D01*
X362501Y358966D01*
X363726Y358594D01*
X365000Y358469D01*
X366274Y358594D01*
X367499Y358966D01*
X368629Y359569D01*
X369618Y360382D01*
X370431Y361371D01*
X370915Y362277D01*
X375676D01*
X375851Y361855D01*
X376612Y360862D01*
X377605Y360101D01*
X378760Y359622D01*
X379773Y359489D01*
X379962Y358970D01*
X333074Y312083D01*
X332642Y311519D01*
X332369Y310862D01*
X332277Y310157D01*
Y308835D01*
X331648Y308352D01*
X330894Y307370D01*
X330421Y306227D01*
X330259Y305000D01*
X330421Y303773D01*
X330894Y302630D01*
X331648Y301648D01*
X332630Y300894D01*
X333773Y300421D01*
X335000Y300259D01*
X336227Y300421D01*
X337370Y300894D01*
X338352Y301648D01*
X339106Y302630D01*
X339579Y303773D01*
X339741Y305000D01*
X339579Y306227D01*
X339106Y307370D01*
X338352Y308352D01*
X337982Y308636D01*
X337947Y309253D01*
X388400Y359706D01*
X388603Y359622D01*
X389843Y359459D01*
X391083Y359622D01*
X392238Y360101D01*
X393230Y360862D01*
X393992Y361855D01*
X394457Y362977D01*
X394498Y362995D01*
X394989Y362913D01*
X395448Y361804D01*
X396226Y360791D01*
X397239Y360014D01*
X398419Y359525D01*
X398885Y359464D01*
Y365000D01*
X399685D01*
Y365800D01*
X404570D01*
X404410Y367016D01*
X403922Y368196D01*
X403144Y369209D01*
X402404Y369777D01*
X402574Y370277D01*
X405872D01*
X408075Y368074D01*
X408639Y367641D01*
X409296Y367369D01*
X410001Y367276D01*
X417385D01*
X417868Y366647D01*
X418850Y365894D01*
X419993Y365420D01*
X421220Y365259D01*
X422447Y365420D01*
X423590Y365894D01*
X424572Y366647D01*
X425325Y367629D01*
X425799Y368772D01*
X425960Y369999D01*
X425799Y371226D01*
X425325Y372370D01*
X424572Y373352D01*
X423590Y374105D01*
X422447Y374578D01*
X421220Y374740D01*
X419993Y374578D01*
X418850Y374105D01*
X417868Y373352D01*
X417385Y372723D01*
X411129D01*
X408926Y374926D01*
X408362Y375358D01*
X407705Y375630D01*
X407000Y375723D01*
D02*
G37*
G36*
X685000Y381536D02*
X683195Y381394D01*
X681435Y380971D01*
X679763Y380278D01*
X678220Y379332D01*
X676843Y378157D01*
X675667Y376780D01*
X674722Y375237D01*
X674029Y373565D01*
X673606Y371805D01*
X673464Y370000D01*
X673606Y368195D01*
X674029Y366435D01*
X674722Y364763D01*
X675667Y363220D01*
X676843Y361843D01*
X678220Y360667D01*
X679763Y359722D01*
X681435Y359029D01*
X683195Y358607D01*
X685000Y358464D01*
X686805Y358607D01*
X688565Y359029D01*
X690237Y359722D01*
X691780Y360667D01*
X693157Y361843D01*
X694333Y363220D01*
X695278Y364763D01*
X695971Y366435D01*
X696393Y368195D01*
X696536Y370000D01*
X696393Y371805D01*
X695971Y373565D01*
X695278Y375237D01*
X694333Y376780D01*
X693157Y378157D01*
X691780Y379332D01*
X690237Y380278D01*
X688565Y380971D01*
X686805Y381394D01*
X685000Y381536D01*
D02*
G37*
G36*
X404570Y364200D02*
X400485D01*
Y359464D01*
X400951Y359525D01*
X402131Y360014D01*
X403144Y360791D01*
X403922Y361804D01*
X404410Y362984D01*
X404570Y364200D01*
D02*
G37*
G36*
X214200Y349200D02*
X210062D01*
X210129Y348695D01*
X210632Y347478D01*
X211434Y346434D01*
X212478Y345633D01*
X213695Y345129D01*
X214200Y345062D01*
Y349200D01*
D02*
G37*
G36*
X219938D02*
X215800D01*
Y345062D01*
X216305Y345129D01*
X217522Y345633D01*
X218566Y346434D01*
X219368Y347478D01*
X219871Y348695D01*
X219938Y349200D01*
D02*
G37*
G36*
X443123Y344881D02*
Y338123D01*
X449881D01*
X449813Y338813D01*
X449378Y340245D01*
X448672Y341566D01*
X447723Y342723D01*
X446566Y343672D01*
X445245Y344378D01*
X443813Y344813D01*
X443123Y344881D01*
D02*
G37*
G36*
X189938Y349200D02*
X185800D01*
Y345062D01*
X186305Y345129D01*
X187522Y345633D01*
X188566Y346434D01*
X189367Y347478D01*
X189871Y348695D01*
X189938Y349200D01*
D02*
G37*
G36*
X239200D02*
X235062D01*
X235129Y348695D01*
X235632Y347478D01*
X236434Y346434D01*
X237478Y345633D01*
X238695Y345129D01*
X239200Y345062D01*
Y349200D01*
D02*
G37*
G36*
X274938D02*
X270800D01*
Y345062D01*
X271305Y345129D01*
X272522Y345633D01*
X273566Y346434D01*
X274367Y347478D01*
X274871Y348695D01*
X274938Y349200D01*
D02*
G37*
G36*
X294200D02*
X290062D01*
X290129Y348695D01*
X290633Y347478D01*
X291434Y346434D01*
X292478Y345633D01*
X293695Y345129D01*
X294200Y345062D01*
Y349200D01*
D02*
G37*
G36*
X244938D02*
X240800D01*
Y345062D01*
X241305Y345129D01*
X242522Y345633D01*
X243566Y346434D01*
X244368Y347478D01*
X244871Y348695D01*
X244938Y349200D01*
D02*
G37*
G36*
X269200D02*
X265062D01*
X265129Y348695D01*
X265633Y347478D01*
X266434Y346434D01*
X267478Y345633D01*
X268695Y345129D01*
X269200Y345062D01*
Y349200D01*
D02*
G37*
G36*
X419800Y259200D02*
X415800D01*
Y255200D01*
X419800D01*
Y259200D01*
D02*
G37*
G36*
X429200D02*
X425264D01*
X425323Y258747D01*
X425807Y257579D01*
X426577Y256577D01*
X427579Y255807D01*
X428747Y255324D01*
X429200Y255264D01*
Y259200D01*
D02*
G37*
G36*
X374736Y258200D02*
X370800D01*
Y254264D01*
X371253Y254324D01*
X372421Y254807D01*
X373423Y255577D01*
X374193Y256579D01*
X374676Y257747D01*
X374736Y258200D01*
D02*
G37*
G36*
X414200Y259200D02*
X410200D01*
Y255200D01*
X414200D01*
Y259200D01*
D02*
G37*
G36*
X434736D02*
X430800D01*
Y255264D01*
X431253Y255324D01*
X432421Y255807D01*
X433423Y256577D01*
X434193Y257579D01*
X434677Y258747D01*
X434736Y259200D01*
D02*
G37*
G36*
X370800Y263736D02*
Y259800D01*
X374736D01*
X374676Y260253D01*
X374193Y261421D01*
X373423Y262423D01*
X372421Y263193D01*
X371253Y263677D01*
X370800Y263736D01*
D02*
G37*
G36*
X414200Y264800D02*
X410200D01*
Y260800D01*
X414200D01*
Y264800D01*
D02*
G37*
G36*
X444200Y259200D02*
X440264D01*
X440323Y258747D01*
X440807Y257579D01*
X441577Y256577D01*
X442579Y255807D01*
X443747Y255324D01*
X444200Y255264D01*
Y259200D01*
D02*
G37*
G36*
X449736D02*
X445800D01*
Y255264D01*
X446253Y255324D01*
X447421Y255807D01*
X448423Y256577D01*
X449193Y257579D01*
X449677Y258747D01*
X449736Y259200D01*
D02*
G37*
G36*
X250000Y244741D02*
X248773Y244579D01*
X247630Y244106D01*
X246648Y243352D01*
X246165Y242723D01*
X243835D01*
X243352Y243352D01*
X242370Y244106D01*
X241227Y244579D01*
X240000Y244741D01*
X238773Y244579D01*
X237630Y244106D01*
X236648Y243352D01*
X235894Y242370D01*
X235421Y241227D01*
X235259Y240000D01*
X235421Y238773D01*
X235894Y237630D01*
X236648Y236648D01*
X237630Y235894D01*
X238773Y235421D01*
X240000Y235259D01*
X241227Y235421D01*
X242370Y235894D01*
X243352Y236648D01*
X243835Y237277D01*
X246165D01*
X246648Y236648D01*
X247630Y235894D01*
X248773Y235421D01*
X250000Y235259D01*
X251227Y235421D01*
X252370Y235894D01*
X253352Y236648D01*
X254105Y237630D01*
X254579Y238773D01*
X254741Y240000D01*
X254579Y241227D01*
X254105Y242370D01*
X253352Y243352D01*
X252370Y244106D01*
X251227Y244579D01*
X250000Y244741D01*
D02*
G37*
G36*
X489200Y249750D02*
X485250D01*
Y245800D01*
X489200D01*
Y249750D01*
D02*
G37*
G36*
X504200Y244200D02*
X500264D01*
X500323Y243747D01*
X500807Y242579D01*
X501577Y241577D01*
X502579Y240807D01*
X503747Y240323D01*
X504200Y240264D01*
Y244200D01*
D02*
G37*
G36*
X509736D02*
X505800D01*
Y240264D01*
X506253Y240323D01*
X507421Y240807D01*
X508423Y241577D01*
X509193Y242579D01*
X509677Y243747D01*
X509736Y244200D01*
D02*
G37*
G36*
X494750Y249750D02*
X490800D01*
Y245800D01*
X494750D01*
Y249750D01*
D02*
G37*
G36*
X625000Y277543D02*
X621916Y277370D01*
X618871Y276853D01*
X615903Y275998D01*
X613049Y274816D01*
X610346Y273322D01*
X607827Y271534D01*
X605524Y269476D01*
X603466Y267173D01*
X601678Y264654D01*
X600184Y261951D01*
X599002Y259097D01*
X598147Y256129D01*
X597706Y253530D01*
X588120D01*
X587370Y254105D01*
X586227Y254579D01*
X585000Y254741D01*
X583773Y254579D01*
X582630Y254105D01*
X581648Y253352D01*
X580895Y252370D01*
X580421Y251227D01*
X580259Y250000D01*
X580421Y248773D01*
X580895Y247630D01*
X581648Y246648D01*
X582630Y245895D01*
X583773Y245421D01*
X585000Y245259D01*
X586227Y245421D01*
X587370Y245895D01*
X588120Y246470D01*
X597706D01*
X598147Y243871D01*
X599002Y240903D01*
X600184Y238049D01*
X601678Y235346D01*
X603466Y232827D01*
X605524Y230524D01*
X607827Y228466D01*
X610346Y226678D01*
X613049Y225184D01*
X615903Y224002D01*
X618469Y223263D01*
Y185000D01*
Y153691D01*
X618037Y152884D01*
X617608Y151470D01*
X617464Y150000D01*
X617608Y148530D01*
X618037Y147116D01*
X618734Y145813D01*
X619671Y144671D01*
X620813Y143734D01*
X621470Y143383D01*
Y141462D01*
X619538Y139530D01*
X579120D01*
X578370Y140105D01*
X577227Y140579D01*
X576000Y140741D01*
X574773Y140579D01*
X573630Y140105D01*
X572648Y139352D01*
X571895Y138370D01*
X571421Y137227D01*
X571259Y136000D01*
X571421Y134773D01*
X571895Y133630D01*
X572648Y132648D01*
X573630Y131895D01*
X574773Y131421D01*
X576000Y131259D01*
X577227Y131421D01*
X578370Y131895D01*
X579120Y132470D01*
X621000D01*
X621914Y132590D01*
X622765Y132943D01*
X623496Y133504D01*
X627496Y137504D01*
X628057Y138235D01*
X628410Y139086D01*
X628530Y140000D01*
Y143383D01*
X629187Y143734D01*
X630329Y144671D01*
X631266Y145813D01*
X631963Y147116D01*
X632392Y148530D01*
X632536Y150000D01*
X632392Y151470D01*
X631963Y152884D01*
X631531Y153691D01*
Y178469D01*
X635000D01*
X636274Y178594D01*
X637500Y178966D01*
X638629Y179569D01*
X639618Y180382D01*
X640431Y181371D01*
X641034Y182501D01*
X641406Y183726D01*
X641532Y185000D01*
X641406Y186274D01*
X641034Y187499D01*
X640431Y188629D01*
X639618Y189618D01*
X638629Y190431D01*
X637500Y191034D01*
X636274Y191406D01*
X635000Y191531D01*
X631531D01*
Y223263D01*
X634097Y224002D01*
X636951Y225184D01*
X639654Y226678D01*
X642173Y228466D01*
X644476Y230524D01*
X646534Y232827D01*
X648322Y235346D01*
X649816Y238049D01*
X650998Y240903D01*
X651737Y243469D01*
X663091D01*
X664365Y243594D01*
X665590Y243966D01*
X666719Y244569D01*
X667709Y245382D01*
X674719Y252391D01*
X675000Y252363D01*
X676862Y252547D01*
X678653Y253090D01*
X680303Y253972D01*
X681750Y255159D01*
X682937Y256606D01*
X683819Y258256D01*
X684363Y260047D01*
X684546Y261909D01*
X684363Y263772D01*
X683819Y265563D01*
X682937Y267213D01*
X681750Y268659D01*
X680303Y269847D01*
X678653Y270729D01*
X676862Y271272D01*
X675000Y271455D01*
X673138Y271272D01*
X671347Y270729D01*
X669697Y269847D01*
X668250Y268659D01*
X667063Y267213D01*
X666181Y265563D01*
X665637Y263772D01*
X665454Y261909D01*
X665482Y261628D01*
X660385Y256531D01*
X651737D01*
X650998Y259097D01*
X649816Y261951D01*
X648322Y264654D01*
X646534Y267173D01*
X644476Y269476D01*
X642173Y271534D01*
X639654Y273322D01*
X636951Y274816D01*
X634097Y275998D01*
X631129Y276853D01*
X628084Y277370D01*
X625000Y277543D01*
D02*
G37*
G36*
X369200Y258200D02*
X365264D01*
X365323Y257747D01*
X365807Y256579D01*
X366577Y255577D01*
X367579Y254807D01*
X368747Y254324D01*
X369200Y254264D01*
Y258200D01*
D02*
G37*
G36*
X504200Y249736D02*
X503747Y249676D01*
X502579Y249193D01*
X501577Y248423D01*
X500807Y247421D01*
X500323Y246253D01*
X500264Y245800D01*
X504200D01*
Y249736D01*
D02*
G37*
G36*
X505800D02*
Y245800D01*
X509736D01*
X509677Y246253D01*
X509193Y247421D01*
X508423Y248423D01*
X507421Y249193D01*
X506253Y249676D01*
X505800Y249736D01*
D02*
G37*
G36*
X419800Y264800D02*
X415800D01*
Y260800D01*
X419800D01*
Y264800D01*
D02*
G37*
G36*
X280800Y284736D02*
Y280800D01*
X284736D01*
X284677Y281253D01*
X284193Y282421D01*
X283423Y283423D01*
X282421Y284193D01*
X281253Y284677D01*
X280800Y284736D01*
D02*
G37*
G36*
X294200Y284800D02*
X290200D01*
Y280800D01*
X294200D01*
Y284800D01*
D02*
G37*
G36*
X185800Y279736D02*
Y275800D01*
X189736D01*
X189676Y276253D01*
X189193Y277421D01*
X188423Y278423D01*
X187421Y279193D01*
X186253Y279677D01*
X185800Y279736D01*
D02*
G37*
G36*
X279200Y284736D02*
X278747Y284677D01*
X277579Y284193D01*
X276577Y283423D01*
X275807Y282421D01*
X275324Y281253D01*
X275264Y280800D01*
X279200D01*
Y284736D01*
D02*
G37*
G36*
X299800Y284800D02*
X295800D01*
Y280800D01*
X299800D01*
Y284800D01*
D02*
G37*
G36*
X441760Y294737D02*
X441307Y294677D01*
X440140Y294193D01*
X439137Y293424D01*
X438368Y292421D01*
X437884Y291254D01*
X437824Y290801D01*
X441760D01*
Y294737D01*
D02*
G37*
G36*
X443360D02*
Y290801D01*
X447296D01*
X447237Y291254D01*
X446753Y292421D01*
X445984Y293424D01*
X444981Y294193D01*
X443814Y294677D01*
X443360Y294737D01*
D02*
G37*
G36*
X441760Y289201D02*
X437824D01*
X437884Y288748D01*
X438368Y287580D01*
X439137Y286577D01*
X440140Y285808D01*
X441307Y285324D01*
X441760Y285264D01*
Y289201D01*
D02*
G37*
G36*
X447296D02*
X443360D01*
Y285264D01*
X443814Y285324D01*
X444981Y285808D01*
X445984Y286577D01*
X446753Y287580D01*
X447237Y288748D01*
X447296Y289201D01*
D02*
G37*
G36*
X444200Y264736D02*
X443747Y264676D01*
X442579Y264193D01*
X441577Y263423D01*
X440807Y262421D01*
X440323Y261253D01*
X440264Y260800D01*
X444200D01*
Y264736D01*
D02*
G37*
G36*
X445800D02*
Y260800D01*
X449736D01*
X449677Y261253D01*
X449193Y262421D01*
X448423Y263423D01*
X447421Y264193D01*
X446253Y264676D01*
X445800Y264736D01*
D02*
G37*
G36*
X429200D02*
X428747Y264676D01*
X427579Y264193D01*
X426577Y263423D01*
X425807Y262421D01*
X425323Y261253D01*
X425264Y260800D01*
X429200D01*
Y264736D01*
D02*
G37*
G36*
X430800D02*
Y260800D01*
X434736D01*
X434677Y261253D01*
X434193Y262421D01*
X433423Y263423D01*
X432421Y264193D01*
X431253Y264676D01*
X430800Y264736D01*
D02*
G37*
G36*
X189736Y274200D02*
X185800D01*
Y270264D01*
X186253Y270323D01*
X187421Y270807D01*
X188423Y271577D01*
X189193Y272579D01*
X189676Y273747D01*
X189736Y274200D01*
D02*
G37*
G36*
X279200Y279200D02*
X275264D01*
X275324Y278747D01*
X275807Y277579D01*
X276577Y276577D01*
X277579Y275807D01*
X278747Y275324D01*
X279200Y275264D01*
Y279200D01*
D02*
G37*
G36*
X284736D02*
X280800D01*
Y275264D01*
X281253Y275324D01*
X282421Y275807D01*
X283423Y276577D01*
X284193Y277579D01*
X284677Y278747D01*
X284736Y279200D01*
D02*
G37*
G36*
X294200D02*
X290200D01*
Y275200D01*
X294200D01*
Y279200D01*
D02*
G37*
G36*
X299800D02*
X295800D01*
Y275200D01*
X299800D01*
Y279200D01*
D02*
G37*
%LPD*%
G54D10*
X385000Y180000D02*
X415500Y149500D01*
X269000Y125000D02*
X445000D01*
X415000D02*
Y150000D01*
X370000Y180000D02*
X385000D01*
X513878Y335878D02*
Y342157D01*
X498000Y320000D02*
X513878Y335878D01*
X490000Y320000D02*
X498000D01*
X482843Y310157D02*
X490000D01*
X475000Y318000D02*
X482843Y310157D01*
X475000Y318000D02*
Y340000D01*
X459000Y356000D02*
X475000Y340000D01*
X401000Y356000D02*
X459000D01*
X350000Y305000D02*
X401000Y356000D01*
X349500Y274500D02*
X350500D01*
X350000Y275000D02*
X360000Y285000D01*
X336001Y295001D02*
X371221Y295001D01*
X331000Y290000D02*
X336001Y295001D01*
X320000Y290000D02*
X331000D01*
X278892Y149892D02*
X284892D01*
X340000Y141000D02*
Y165000D01*
Y145000D02*
X360315D01*
X384685Y130000D02*
X399685Y145000D01*
X294000Y130000D02*
X384685D01*
X285000Y139000D02*
X294000Y130000D01*
X285000Y139000D02*
Y156000D01*
X445000Y125000D02*
X490000D01*
X385000Y180000D02*
Y185000D01*
X625000Y125000D02*
X650000Y150000D01*
X490000Y125000D02*
X625000D01*
X490000D02*
Y160000D01*
X309000Y190000D02*
Y218000D01*
X297000Y230000D02*
X309000Y218000D01*
X297000Y230000D02*
Y237000D01*
X336000Y137000D02*
X340000Y141000D01*
X324000Y137000D02*
X336000D01*
X320000Y141000D02*
X324000Y137000D01*
X320000Y141000D02*
Y150000D01*
X304000D02*
X310000D01*
X299000Y155000D02*
X304000Y150000D01*
X245000D02*
X255096D01*
Y138904D02*
Y150000D01*
Y138904D02*
X269000Y125000D01*
X275096Y149892D02*
X278892D01*
X220000Y150000D02*
X245000D01*
X375000Y250000D02*
X384500Y259500D01*
X460000Y220000D02*
Y230000D01*
Y215000D02*
Y220000D01*
X350000Y226500D02*
X352500D01*
X370000Y230000D02*
X385000Y215000D01*
X235000Y324000D02*
X241000Y330000D01*
X195000Y197000D02*
X197000D01*
X280000Y230000D02*
Y240000D01*
X467000Y190851D02*
X471149Y195000D01*
X467000Y177000D02*
Y190851D01*
X460000Y170000D02*
X467000Y177000D01*
X471149Y195000D02*
X475000D01*
X241000Y330000D02*
X270000D01*
X240000D02*
X241000D01*
X350000Y226500D02*
Y229000D01*
X195000Y195000D02*
Y197000D01*
X384500Y259500D02*
X385000Y259000D01*
X442000Y220000D02*
X445000D01*
X561000Y149764D02*
X562500D01*
X350000Y259000D02*
Y260000D01*
X370000Y229000D02*
Y230000D01*
X280000Y220000D02*
Y230000D01*
X360000Y250000D02*
X375000D01*
X335000D02*
X360000D01*
X457000Y220000D02*
X460000D01*
X445000D02*
X457000D01*
X448779Y381000D02*
X537778D01*
X361000D02*
X448779D01*
X320000Y260000D02*
X325000D01*
X313000D02*
X320000D01*
X200000Y165000D02*
Y170000D01*
Y150000D02*
Y165000D01*
X442000Y175000D02*
X457000Y190000D01*
X407000Y175000D02*
X442000D01*
X437000Y195000D02*
X442000Y190000D01*
X415000Y195000D02*
X437000D01*
X460000Y215000D02*
X470000Y205000D01*
X209000Y209000D02*
Y217000D01*
X197000Y197000D02*
X209000Y209000D01*
X537778Y381000D02*
X548779Y369999D01*
X345000Y365000D02*
X361000Y381000D01*
X300000Y257000D02*
X310000D01*
X297000Y260000D02*
X300000Y257000D01*
X280000Y260000D02*
X297000D01*
X310000Y257000D02*
X313000Y260000D01*
X315000Y270000D02*
X320000D01*
X310000Y265000D02*
X315000Y270000D01*
X305000Y265000D02*
X310000D01*
X297000Y237000D02*
X302000Y242000D01*
X299000Y180000D02*
X309000Y190000D01*
X299000Y165000D02*
Y180000D01*
X225000Y195000D02*
X246000D01*
X200000Y170000D02*
X225000Y195000D01*
X650000Y213000D02*
X690000Y253000D01*
X650000Y150000D02*
Y213000D01*
X411000Y325000D02*
X430000D01*
X390000Y304000D02*
X411000Y325000D01*
X390000Y285000D02*
Y304000D01*
X398780Y290001D02*
Y295001D01*
X360000Y260000D02*
X371000Y271000D01*
X360000Y250000D02*
Y260000D01*
X362000Y198000D02*
Y217000D01*
X352500Y226500D02*
X362000Y217000D01*
X350000Y260000D02*
X367000Y277000D01*
X371000Y271000D02*
X386000D01*
X327000Y252000D02*
X349500Y274500D01*
X287000Y252000D02*
X327000D01*
X385000Y259000D02*
X400000D01*
X448779Y369999D02*
Y381000D01*
X410001Y369999D02*
X421220D01*
X407000Y373000D02*
X410001Y369999D01*
X384000Y373000D02*
X407000D01*
X380000Y369000D02*
X384000Y373000D01*
X380000Y365000D02*
Y369000D01*
X393000Y189000D02*
X407000Y175000D01*
X393000Y189000D02*
Y201000D01*
X408000Y185000D02*
X415000D01*
X398000Y195000D02*
X408000Y185000D01*
X398000Y195000D02*
Y216000D01*
X470000Y205000D02*
X475000D01*
X403000Y238000D02*
X408000Y233000D01*
X340000Y238000D02*
X403000D01*
X337000Y235000D02*
X340000Y238000D01*
X415000Y244000D02*
Y250000D01*
X338000Y244000D02*
X415000D01*
X336000Y242000D02*
X338000Y244000D01*
X305000Y235000D02*
X337000D01*
X285000Y250000D02*
X287000Y252000D01*
X332000Y247000D02*
X335000Y250000D01*
X292000Y247000D02*
X332000D01*
X285000Y240000D02*
X292000Y247000D01*
X415000Y215000D02*
Y244000D01*
X302000Y242000D02*
X336000D01*
X280000Y270000D02*
X295000D01*
X300000Y265000D01*
X305000D01*
X325000Y260000D02*
X335000Y270000D01*
X340000Y165000D02*
Y189874D01*
X430000Y214000D02*
Y230000D01*
X421000Y205000D02*
X430000Y214000D01*
X415000Y205000D02*
X421000D01*
X403000Y203000D02*
Y221000D01*
X400000Y224000D02*
X403000Y221000D01*
X400000Y224000D02*
Y229000D01*
X403000Y203000D02*
X411000Y195000D01*
X385000Y229000D02*
X398000Y216000D01*
X385000Y229000D02*
Y230000D01*
X386000Y271000D02*
X398780Y283780D01*
X382000Y277000D02*
X390000Y285000D01*
X367000Y277000D02*
X382000D01*
X398780Y283780D02*
Y290001D01*
X280000Y250000D02*
X285000D01*
X280000Y240000D02*
X285000D01*
X335000Y270000D02*
Y275000D01*
X408000Y212000D02*
X415000Y205000D01*
X408000Y212000D02*
Y233000D01*
X436000Y250000D02*
X438000Y248000D01*
X415000Y250000D02*
X436000D01*
X350000Y304000D02*
Y305000D01*
X365000Y365000D02*
X380000D01*
X335000Y305000D02*
Y310157D01*
X389843Y365000D01*
X235000Y275000D02*
Y324000D01*
X285000Y340000D02*
X295000Y330000D01*
Y310000D02*
Y330000D01*
Y310000D02*
X305000Y300000D01*
X213000Y340000D02*
X285000D01*
X235000Y275000D02*
X240000Y270000D01*
X470000Y240000D02*
X490000Y220000D01*
Y205360D02*
Y220000D01*
Y205360D02*
X500360Y195000D01*
X485000Y235000D02*
X490000D01*
X472000Y248000D02*
X485000Y235000D01*
X438000Y248000D02*
X472000D01*
X460000Y240000D02*
X470000D01*
X490000Y235000D02*
X505000Y220000D01*
Y215000D02*
Y220000D01*
X520000Y215000D02*
Y235000D01*
X505000D02*
X520000D01*
X546000Y245000D02*
X561000Y260000D01*
X520000Y245000D02*
X546000D01*
X430000Y230000D02*
X445000D01*
X398780Y290001D02*
X415001D01*
X411000Y195000D02*
X415000D01*
X271000Y290000D02*
X295000D01*
X261000Y280000D02*
X271000Y290000D01*
X261000Y210000D02*
Y280000D01*
X246000Y195000D02*
X261000Y210000D01*
X201000Y229000D02*
X210000D01*
X195000Y235000D02*
X201000Y229000D01*
X195000Y255000D02*
X210000Y240000D01*
X195000Y255000D02*
Y275000D01*
X245000Y229000D02*
X246000Y230000D01*
X240000Y229000D02*
X245000D01*
X246000Y230000D02*
X250000D01*
X247000Y217000D02*
X250000Y220000D01*
X239000Y217000D02*
X247000D01*
X240000Y240000D02*
X250000D01*
X205000Y332000D02*
X213000Y340000D01*
X205000Y270000D02*
Y332000D01*
X295000Y330000D02*
X325000D01*
X230000Y260000D02*
X250000D01*
X215000Y275000D02*
X230000Y260000D01*
X215000Y275000D02*
Y330000D01*
X205000Y270000D02*
X225000Y250000D01*
X305000Y300000D02*
X320000D01*
X240000Y270000D02*
X250000D01*
X295000Y290000D02*
X320000D01*
X250000Y280000D02*
X261000D01*
X245000Y150000D02*
Y165000D01*
X285000Y156000D02*
Y165000D01*
Y190000D01*
X299000Y155000D02*
Y165000D01*
X225000Y250000D02*
X250000D01*
X490000Y160000D02*
Y186000D01*
X481000Y195000D02*
X490000Y186000D01*
X475000Y195000D02*
X481000D01*
X500360D02*
X505000D01*
X389000Y205000D02*
X393000Y201000D01*
X385000Y205000D02*
X389000D01*
X365000Y195000D02*
X370000D01*
X362000Y198000D02*
X365000Y195000D01*
X690000Y253000D02*
Y320000D01*
X672000Y338000D02*
X690000Y320000D01*
X661000Y338000D02*
X672000D01*
X641344Y357656D02*
X661000Y338000D01*
X561122Y357656D02*
X641344D01*
X548779Y369999D02*
X561122Y357656D01*
Y342157D02*
Y357656D01*
X513878Y362657D02*
X521220Y369999D01*
X513878Y342157D02*
Y362657D01*
X510000Y205000D02*
X520000Y215000D01*
X505000Y205000D02*
X510000D01*
Y195000D02*
X520000Y185000D01*
Y180000D02*
Y185000D01*
X505000Y195000D02*
X510000D01*
X370000D02*
X385000D01*
X370000Y205000D02*
X385000D01*
X475000Y185000D02*
X480000Y180000D01*
X500000D02*
X505000Y185000D01*
X500000Y160000D02*
Y180000D01*
X480000Y160000D02*
Y180000D01*
X540764Y170000D02*
X561000Y149764D01*
X520000Y170000D02*
X540764D01*
G54D11*
X562500Y149764D02*
X605000D01*
Y150000D01*
X561000Y293807D02*
X561122Y293929D01*
X625000Y185000D02*
Y250000D01*
Y150000D02*
Y185000D01*
X635000D01*
X625000Y250000D02*
X663091D01*
X561000Y260000D02*
Y293807D01*
X554000Y325000D02*
X625000D01*
X537500Y341500D02*
X554000Y325000D01*
X537500Y341500D02*
Y350000D01*
X663091Y325000D02*
X675000Y313091D01*
X625000Y325000D02*
X663091D01*
Y250000D02*
X675000Y261909D01*
G54D12*
X568000Y308000D02*
X585000Y291000D01*
X527949Y308000D02*
X568000D01*
X513878Y293929D02*
X527949Y308000D01*
X585000Y280000D02*
Y291000D01*
X625000Y140000D02*
Y150000D01*
X621000Y136000D02*
X625000Y140000D01*
X576000Y136000D02*
X621000D01*
X625000Y250000D02*
Y268000D01*
X585000Y250000D02*
X625000D01*
G54D13*
X295000Y355000D02*
X325000D01*
X295000Y325000D02*
Y355000D01*
Y325000D02*
X325000D01*
Y355000D01*
X240000D02*
X270000D01*
X240000Y325000D02*
Y355000D01*
Y325000D02*
X270000D01*
Y355000D01*
X185000D02*
X215000D01*
X185000Y325000D02*
Y355000D01*
Y325000D02*
X215000D01*
Y355000D01*
G54D14*
X415000Y185000D02*
D03*
X505000D02*
D03*
X250000Y280000D02*
D03*
X275000Y165000D02*
D03*
X255000D02*
D03*
X330000D02*
D03*
X309000D02*
D03*
X190000D02*
D03*
G54D15*
X415000Y195000D02*
D03*
Y205000D02*
D03*
Y215000D02*
D03*
X385000Y185000D02*
D03*
Y195000D02*
D03*
Y205000D02*
D03*
Y215000D02*
D03*
X505000Y195000D02*
D03*
Y205000D02*
D03*
Y215000D02*
D03*
X475000Y195000D02*
D03*
Y205000D02*
D03*
Y215000D02*
D03*
X665000Y185000D02*
D03*
X635000D02*
D03*
X370000Y195000D02*
D03*
Y205000D02*
D03*
X585000Y250000D02*
D03*
Y280000D02*
D03*
X421220Y369999D02*
D03*
X448779D02*
D03*
X195000Y195000D02*
D03*
X185000D02*
D03*
X280000Y220000D02*
D03*
Y230000D02*
D03*
Y250000D02*
D03*
Y260000D02*
D03*
Y270000D02*
D03*
Y280000D02*
D03*
X250000Y220000D02*
D03*
Y230000D02*
D03*
Y240000D02*
D03*
Y250000D02*
D03*
Y260000D02*
D03*
Y270000D02*
D03*
X490000Y235000D02*
D03*
X295000Y290000D02*
D03*
X460000Y170000D02*
D03*
X370000Y180000D02*
D03*
X415000Y250000D02*
D03*
X398780Y295001D02*
D03*
X371221D02*
D03*
X442560Y290001D02*
D03*
X415001D02*
D03*
X521220Y369999D02*
D03*
X548779D02*
D03*
X400000Y259000D02*
D03*
Y229000D02*
D03*
X460000Y230000D02*
D03*
Y240000D02*
D03*
X442000Y190000D02*
D03*
Y220000D02*
D03*
X385000Y259000D02*
D03*
Y229000D02*
D03*
X520000Y180000D02*
D03*
Y170000D02*
D03*
X430000Y230000D02*
D03*
Y260000D02*
D03*
X520000Y235000D02*
D03*
Y245000D02*
D03*
X445000Y230000D02*
D03*
Y260000D02*
D03*
X505000Y235000D02*
D03*
Y245000D02*
D03*
X457000Y190000D02*
D03*
Y220000D02*
D03*
X350000Y259000D02*
D03*
Y229000D02*
D03*
X370000Y259000D02*
D03*
Y229000D02*
D03*
X350000Y275000D02*
D03*
Y305000D02*
D03*
X195000Y235000D02*
D03*
X185000D02*
D03*
X195000Y275000D02*
D03*
X185000D02*
D03*
X285000Y165000D02*
D03*
X245000D02*
D03*
X340000D02*
D03*
X299000D02*
D03*
X200000D02*
D03*
X225000Y180000D02*
D03*
X255000D02*
D03*
X239000Y217000D02*
D03*
X209000D02*
D03*
X240000Y229000D02*
D03*
X210000D02*
D03*
X240000Y240000D02*
D03*
X210000D02*
D03*
X335000Y275000D02*
D03*
Y305000D02*
D03*
X546000Y136000D02*
D03*
X576000D02*
D03*
X305000Y235000D02*
D03*
Y265000D02*
D03*
G54D16*
X475000Y185000D02*
D03*
G54D17*
X310000Y150000D02*
D03*
X320000D02*
D03*
X210000D02*
D03*
X200000D02*
D03*
X265096Y149892D02*
D03*
X255096D02*
D03*
G54D18*
X330000Y150000D02*
D03*
X220000D02*
D03*
G54D19*
X561122Y293929D02*
D03*
X513878D02*
D03*
X537500Y350032D02*
D03*
X561000Y149764D02*
D03*
Y260000D02*
D03*
X625000Y150000D02*
D03*
X442323Y312677D02*
D03*
Y337323D02*
D03*
X417677D02*
D03*
G54D20*
X561122Y342157D02*
D03*
X513878D02*
D03*
G54D21*
X675000Y261909D02*
D03*
Y313091D02*
D03*
G54D22*
X625000Y325000D02*
D03*
Y250000D02*
D03*
G54D23*
X380000Y365000D02*
D03*
X389843D02*
D03*
X399685D02*
D03*
G54D24*
X320000Y270000D02*
D03*
Y300000D02*
D03*
Y290000D02*
D03*
Y280000D02*
D03*
Y260000D02*
D03*
G54D25*
X500000Y160000D02*
D03*
X490000D02*
D03*
X480000D02*
D03*
G54D26*
X275096Y149892D02*
D03*
G54D27*
X399685Y145000D02*
D03*
X380000D02*
D03*
X360315D02*
D03*
G54D28*
X295000Y350000D02*
D03*
X325000D02*
D03*
X295000Y330000D02*
D03*
X240000Y350000D02*
D03*
X270000D02*
D03*
X240000Y330000D02*
D03*
X185000Y350000D02*
D03*
X215000D02*
D03*
X185000Y330000D02*
D03*
G54D29*
X325000D02*
D03*
X270000D02*
D03*
X215000D02*
D03*
G54D30*
X339874Y190000D02*
D03*
X332000D02*
D03*
X277126D02*
D03*
X285000D02*
D03*
G54D31*
X605000Y150000D02*
D03*
G54D32*
X365000Y365000D02*
D03*
X417677Y312677D02*
D03*
X430000Y325000D02*
D03*
G54D33*
X345000Y365000D02*
D03*
G54D34*
X280000Y240000D02*
D03*
G54D35*
X490000Y245000D02*
D03*
G54D36*
X295000Y280000D02*
D03*
X460000Y160000D02*
D03*
X370000Y170000D02*
D03*
X415000Y260000D02*
D03*
G54D37*
X490000Y320000D02*
D03*
Y310157D02*
D03*
Y300315D02*
D03*
G54D38*
X360000Y285000D02*
D03*
G54D39*
X310000Y370000D02*
D03*
X254000Y310000D02*
D03*
X685000Y135000D02*
D03*
Y370000D02*
D03*
X200000D02*
D03*
X185000Y130000D02*
D03*
M02*
